<svg width="50" height="50" viewBox="0 0 50 50" fill="none" xmlns="http://www.w3.org/2000/svg">
<circle cx="25" cy="25" r="24" stroke="white" stroke-width="2"/>
<path d="M35.1327 29.5498C36.053 29.3615 37.0467 29.1307 38.2299 28.8886C38.7925 28.7598 38.938 28.3328 38.4939 27.9032C37.6116 27.1386 36.8451 26.4052 36.1423 25.7819C35.7986 25.4414 35.0508 25.3342 34.5094 25.4997C33.4054 25.7941 32.5063 26.0192 31.702 26.2386C31.3076 26.3193 31.2299 26.6091 31.5156 26.9342C32.1025 27.5263 32.7685 28.1708 33.5774 28.9777C33.979 29.3339 34.6803 29.615 35.1327 29.5498Z" fill="white"/>
<path d="M26.7586 17.6769C27.3507 17.09 27.9952 16.424 28.8021 15.6151C29.2162 15.229 29.4761 14.491 29.3742 14.0598C29.1859 13.1396 28.9551 12.1458 28.713 10.9626C28.5842 10.4 28.1572 10.2545 27.7275 10.6986C26.963 11.581 26.2296 12.3474 25.6063 13.0502C25.2657 13.3939 25.1585 14.1418 25.3241 14.6832C25.6185 15.7872 25.8648 16.723 26.063 17.4905C26.1649 17.9217 26.4547 17.9993 26.7586 17.6769Z" fill="white"/>
<path d="M27.7996 20.9977C28.3819 20.5636 29.1112 20.0445 29.9663 19.4038C30.4228 19.0912 30.6941 18.5426 30.5823 18.2642C30.3743 17.6493 30.1606 16.9397 29.9625 16.1721C29.845 15.7989 29.4082 15.8061 28.9941 16.1922C28.2239 16.9799 27.5427 17.6671 26.9505 18.254C26.6834 18.5552 26.5224 19.0402 26.6187 19.3766C26.7899 20.0127 26.9555 20.5541 27.1154 21.0008C27.2215 21.1845 27.4901 21.2255 27.7996 20.9977Z" fill="white"/>
<path d="M29.0966 23.3351C29.7638 23.0479 30.578 22.6758 31.5392 22.2189C32.0381 21.9798 32.2995 21.5839 32.151 21.3267C31.8172 20.8334 31.5202 20.3189 31.2387 19.7464C31.1269 19.468 30.6166 19.5176 30.16 19.8302C29.2837 20.4341 28.5912 20.932 27.9721 21.3874C27.6626 21.6151 27.5114 21.9473 27.6175 22.1311C27.7929 22.5198 28.0051 22.8873 28.2753 23.2703C28.4181 23.4329 28.7814 23.4681 29.0966 23.3351Z" fill="white"/>
<path d="M22.1777 21.4499C22.5665 21.2744 22.9339 21.0623 23.317 20.7921C23.5007 20.686 23.536 20.3227 23.3817 19.9708C23.0945 19.3036 22.7225 18.4894 22.2656 17.5282C22.0265 17.0293 21.6306 16.7679 21.3733 16.9164C20.88 17.2502 20.3655 17.5472 19.7931 17.8287C19.5146 17.9405 19.5643 18.4508 19.8768 18.9074C20.4808 19.7837 20.9998 20.513 21.434 21.0953C21.6617 21.4048 21.9728 21.5192 22.1777 21.4499Z" fill="white"/>
<path d="M27.8608 32.3239C28.3541 31.9901 28.8685 31.6931 29.441 31.4116C29.7195 31.2998 29.6698 30.7895 29.3573 30.333C28.7533 29.4567 28.2343 28.7274 27.8001 28.1451C27.5724 27.8355 27.2401 27.6844 27.0563 27.7905C26.6676 27.9659 26.3001 28.178 25.9539 28.427C25.7701 28.5331 25.7349 28.8964 25.8891 29.2484C26.1763 29.9155 26.5484 30.7297 27.0053 31.6909C27.2076 32.211 27.6248 32.5092 27.8608 32.3239Z" fill="white"/>
<path d="M30.9674 30.7324C31.5823 30.5244 32.2919 30.3107 33.0382 30.0757C33.4114 29.9583 33.4042 29.5215 33.0181 29.1074C32.2304 28.3372 31.5432 27.656 30.9563 27.0638C30.6551 26.7967 30.1701 26.6357 29.8337 26.732C29.1976 26.9032 28.6562 27.0688 28.2095 27.2287C27.9678 27.3192 27.9849 27.6034 28.1914 27.8762C28.6255 28.4585 29.1446 29.1878 29.7853 30.0429C30.1403 30.5729 30.6522 30.8654 30.9674 30.7324Z" fill="white"/>
<path d="M19.3621 22.4349C19.9982 22.2636 20.5396 22.098 20.9863 21.9381C21.228 21.8476 21.2109 21.5634 21.0045 21.2907C20.5703 20.7084 20.0512 19.9791 19.4105 19.124C19.1192 18.7042 18.5493 18.3962 18.2709 18.508C17.656 18.716 16.9464 18.9297 16.2 19.1646C15.8268 19.282 15.834 19.7189 16.2201 20.133C17.029 20.9399 17.6951 21.5844 18.2819 22.1765C18.5619 22.4069 19.0257 22.5311 19.3621 22.4349Z" fill="white"/>
<path d="M14.73 23.7416C15.834 23.4472 16.733 23.2221 17.5373 23.0027C17.9317 22.922 18.0094 22.6322 17.7237 22.3071C17.1369 21.715 16.4708 21.0705 15.6619 20.2636C15.2758 19.8495 14.5378 19.5896 14.1066 19.6915C13.2076 19.9166 12.1559 20.1318 11.0306 20.3894C10.4468 20.4815 10.3226 20.9453 10.7454 21.3381C11.6278 22.1027 12.3942 22.8361 13.097 23.4593C13.4774 23.7787 14.2253 23.8859 14.73 23.7416Z" fill="white"/>
<path d="M19.0832 29.4103C19.9595 28.8063 20.6888 28.2873 21.2711 27.8531C21.5806 27.6254 21.7318 27.2931 21.6257 27.1094C21.4503 26.7207 21.2381 26.3532 20.9892 26.0069C20.8463 25.8444 20.5197 25.7879 20.1678 25.9421C19.5006 26.2293 18.6864 26.6014 17.7253 27.0583C17.2631 27.2762 16.9649 27.6933 17.1134 27.9506C17.4472 28.4438 17.7443 28.9583 18.0258 29.5308C18.1163 29.7725 18.6266 29.7229 19.0832 29.4103Z" fill="white"/>
<path d="M21.514 38.5433C22.2786 37.6609 23.012 36.8945 23.6352 36.1916C23.9758 35.848 24.083 35.1001 23.9175 34.5587C23.6231 33.4547 23.398 32.5557 23.1786 31.7514C23.0979 31.357 22.8081 31.2793 22.483 31.565C21.8909 32.1518 21.2464 32.8179 20.4395 33.6268C20.0254 34.0129 19.7655 34.7509 19.8674 35.1821C20.0557 36.1023 20.2865 37.0961 20.5286 38.2793C20.6786 38.8786 21.1212 38.9661 21.514 38.5433Z" fill="white"/>
<path d="M20.2721 33.0842C21.0423 32.2966 21.7235 31.6093 22.3156 31.0224C22.5827 30.7212 22.7437 30.2363 22.6475 29.8998C22.4762 29.2637 22.3106 28.7223 22.1507 28.2756C22.0602 28.0339 21.776 28.051 21.5033 28.2575C20.921 28.6917 20.1917 29.2107 19.3366 29.8514C18.88 30.164 18.6088 30.7126 18.7206 30.991C18.9286 31.6059 19.1423 32.3156 19.3772 33.0619C19.4211 33.4775 19.858 33.4703 20.2721 33.0842Z" fill="white"/>
</svg>
