<svg width="69" height="70" viewBox="0 0 69 70" fill="none" xmlns="http://www.w3.org/2000/svg">
<path d="M56.2266 66.192C59.1481 67.1658 62.3478 68.1396 66.104 69.3917C67.9125 69.9482 69.0255 68.9743 68.469 67.0267C67.217 63.4096 66.2431 60.0707 65.2693 57.1493C64.8519 55.619 62.9043 54.0887 61.0957 53.6713C57.4787 52.6975 54.5572 51.8628 51.9139 51.1672C50.6618 50.7498 49.9663 51.4454 50.2445 52.8366C50.9401 55.4798 51.7748 58.4013 52.7486 62.0184C53.3051 63.6878 54.8354 65.6355 56.2266 66.192Z" fill="#EC1026"/>
<path d="M51.9421 18.765C54.5853 18.0694 57.5068 17.2347 61.1239 16.2609C62.9324 15.8435 64.8801 14.1741 65.2974 12.7829C66.2713 9.86142 67.2451 6.66169 68.4972 2.90549C69.0536 1.09695 68.0798 -0.0159979 66.1321 0.540476C62.5151 1.79254 59.1762 2.76637 56.2547 3.7402C54.7244 4.15756 53.1941 6.10522 52.7768 7.91376C51.8029 11.5308 50.9682 14.5914 50.2726 17.0956C49.8553 18.4868 50.5509 19.1824 51.9421 18.765Z" fill="#EC1026"/>
<path d="M49.4281 29.8874C51.7931 29.6091 54.7146 29.3309 58.1926 28.9135C60.0011 28.7744 61.6706 27.6615 61.8097 26.6876C62.227 24.6009 62.7835 22.2359 63.4791 19.7317C63.7573 18.4796 62.5053 17.7841 60.6967 18.2014C57.2188 19.1752 54.1582 20.01 51.5149 20.7055C50.2628 21.1229 49.0108 22.2359 48.7325 23.3488C48.1761 25.4356 47.7587 27.2441 47.4805 28.7744C47.4805 29.47 48.1761 30.0265 49.4281 29.8874Z" fill="#EC1026"/>
<path d="M49.3029 38.6535C51.6679 38.9317 54.5894 39.2099 58.0674 39.4882C59.8759 39.6273 61.2671 38.9317 61.2671 37.9579C61.128 36.0102 61.128 34.0625 61.2671 31.9758C61.4062 31.0019 59.8759 30.3063 58.0674 30.4455C54.5894 30.7237 51.807 31.0019 49.3029 31.2802C48.0508 31.4193 47.077 32.1149 47.077 32.8105C46.9379 34.2017 46.9379 35.5928 47.077 37.1231C47.2161 37.8187 48.1899 38.5143 49.3029 38.6535Z" fill="#EC1026"/>
<path d="M32.746 21.9704C34.1372 22.1095 35.5284 22.1095 37.0587 21.9704C37.7543 21.9704 38.4499 20.9965 38.589 19.7445C38.8672 17.3795 39.1455 14.458 39.4237 10.98C39.5628 9.17147 38.8672 7.78028 37.8934 7.78028C35.9457 7.9194 33.9981 7.9194 31.9113 7.78028C30.9375 7.64116 30.2419 9.17147 30.381 10.98C30.6592 14.458 30.9375 17.3795 31.2157 19.7445C31.3548 20.9965 32.0504 21.8313 32.746 21.9704Z" fill="#EC1026"/>
<path d="M31.0429 62.146C32.9905 62.0069 34.9382 62.0069 37.025 62.146C37.9988 62.2851 38.6944 60.7548 38.5553 58.9463C38.277 55.4683 37.9988 52.5468 37.7205 50.1818C37.5814 48.9297 36.8858 47.9559 36.1902 47.9559C34.7991 47.8168 33.4079 47.8168 32.0167 47.9559C31.3211 47.9559 30.6255 48.9297 30.4864 50.1818C30.2081 52.5468 29.9299 55.4683 29.6517 58.9463C29.3734 60.7548 30.069 62.2851 31.0429 62.146Z" fill="#EC1026"/>
<path d="M42.4722 62.714C44.559 63.1313 46.924 63.6878 49.4281 64.2443C50.6802 64.5225 51.3758 63.2704 50.9584 61.4619C49.9846 57.9839 49.1499 54.9233 48.4543 52.2801C48.0369 51.028 46.924 49.7759 45.811 49.4977C43.7243 48.9412 41.9157 48.5239 40.3854 48.2456C39.5507 48.1065 39.1333 48.9412 39.2725 50.0542C39.5507 52.4192 39.8289 55.3407 40.2463 58.8186C40.3854 60.9054 41.3592 62.5748 42.4722 62.714Z" fill="#EC1026"/>
<path d="M23.1164 20.1359C25.2032 20.6924 27.0117 21.1098 28.542 21.388C29.3767 21.5271 29.7941 20.6924 29.6549 19.5795C29.3767 17.2145 29.0985 14.293 28.6811 10.815C28.542 9.14558 27.4291 7.33704 26.4552 7.19792C24.3684 6.78056 22.0034 6.22409 19.4993 5.66761C18.2472 5.38938 17.5516 6.64144 17.969 8.44998C18.9428 12.0671 19.7775 14.9886 20.4731 17.6318C20.8905 18.7448 22.0034 19.8577 23.1164 20.1359Z" fill="#EC1026"/>
<path d="M7.83368 16.2516C11.4508 17.2254 14.3723 18.0601 17.0155 18.7557C18.2676 19.1731 18.9632 18.4775 18.6849 17.0863C17.9893 14.443 17.1546 11.5216 16.1808 7.90447C15.7634 6.09593 14.094 4.14827 12.7028 3.73091C9.78134 2.8962 6.4425 1.78325 2.82541 0.670304C1.01687 -0.025289 -0.0960761 1.08766 0.460398 2.8962C1.71247 6.51328 2.6863 9.85213 3.66013 12.7736C4.2166 14.3039 6.16426 15.8342 7.83368 16.2516Z" fill="#EC1026"/>
<path d="M10.9077 39.4955C14.3857 39.2173 17.3072 38.9391 19.6722 38.6608C20.9243 38.5217 21.8981 37.8261 21.8981 37.1305C22.0372 35.7393 22.0372 34.3481 21.8981 32.957C21.759 32.2614 20.9243 31.5658 19.6722 31.4267C17.3072 31.1484 14.3857 30.8702 10.9077 30.5919C9.23832 30.4528 7.70802 31.1484 7.70802 32.1222C7.84714 34.0699 7.84714 36.0176 7.70802 38.1043C7.5689 38.9391 9.0992 39.6347 10.9077 39.4955Z" fill="#EC1026"/>
<path d="M2.82541 69.3929C6.44249 68.1408 9.78134 67.167 12.7028 66.1931C14.2331 65.7758 15.7634 63.8281 16.1808 62.0196C17.1546 58.4025 17.9893 55.481 18.6849 52.8377C19.1023 51.5857 18.4067 50.8901 17.0155 51.1683C14.3723 51.8639 11.4508 52.6986 7.83368 53.6725C6.02514 54.0898 4.07748 55.7592 3.66012 57.1504C2.6863 60.0719 1.71246 63.2716 0.460398 67.0278C-0.096076 68.9755 1.01687 69.9493 2.82541 69.3929Z" fill="#EC1026"/>
<path d="M8.24299 51.8637C11.721 50.8899 14.7816 50.0551 17.4248 49.3596C18.6769 48.9422 19.9289 47.8292 20.2072 46.7163C20.7637 44.6295 21.181 42.821 21.4593 41.2907C21.5984 40.456 20.7637 40.0386 19.6507 40.1777C17.2857 40.456 14.3642 40.7342 10.8862 41.1516C9.0777 41.2907 7.40828 42.4036 7.26916 43.3775C6.8518 45.4642 6.29533 47.8293 5.73885 50.3334C5.18238 51.5855 6.43445 52.281 8.24299 51.8637Z" fill="#EC1026"/>
</svg>
