<svg width="130" height="20" viewBox="0 0 130 20" fill="none" xmlns="http://www.w3.org/2000/svg">
<path d="M9.84075 13.693L0 5.22839V0.083252L9.84075 8.46485L19.6815 0.083252V19.9999H15.6244V8.63082L9.84075 13.693ZM4.05715 11.4523V19.9999H0V8.04992L4.05715 11.4523Z" fill="#EC1026"/>
<path d="M29.3516 19.9997H24.8628L32.0276 6.55591L34.2719 10.8712L29.3516 19.9997ZM39.7102 16.6802H33.495L35.5668 12.7799H37.7248L33.1497 4.31528L35.4804 0L46.0981 19.9167H41.6093L39.7102 16.6802Z" fill="#EC1026"/>
<path d="M54.904 0.497803V19.9995H50.8468V0.497803H54.904ZM57.062 19.9995V16.0992H62.673V19.9995H57.062Z" fill="#EC1026"/>
<path d="M71.731 0.497803V19.9995H67.6739V0.497803H71.731ZM75.8745 19.9995H73.9754V16.0992H75.8745C77.601 16.0992 78.9821 15.5183 80.1906 14.4395C81.3128 13.2777 81.9171 11.9499 81.9171 10.3732C81.9171 8.71343 81.3128 7.30267 80.1906 6.14086C78.9821 4.97905 77.601 4.39815 75.8745 4.39815H73.9754V0.497803H75.8745C78.6368 0.497803 81.0539 1.41065 82.9529 3.31933C84.9384 5.22801 85.8879 7.55162 85.8879 10.2902C85.8879 12.9457 84.9384 15.1863 82.9529 17.095C80.9675 19.0037 78.6368 19.9995 75.8745 19.9995Z" fill="#EC1026"/>
<path d="M95.5619 0.497803V19.9995H91.5048V0.497803H95.5619ZM97.72 0.497803H106.093V4.39815H97.72V0.497803ZM97.72 8.2985H106.093V12.1988H97.72V8.2985ZM97.72 16.0992H106.093V19.9995H97.72V16.0992Z" fill="#EC1026"/>
<path d="M125.166 19.9995L111.354 0.497803H116.275L130 19.9995H125.166ZM119.469 15.5183L116.275 19.9166H111.354L116.965 11.9499L119.469 15.5183ZM124.475 8.46447L121.972 4.97905L125.08 0.497803H130L124.475 8.46447Z" fill="#EC1026"/>
</svg>
