<svg width="20" height="20" viewBox="0 0 20 20" fill="none" xmlns="http://www.w3.org/2000/svg">
<path d="M18.6397 13.1543L14.0264 11.0869C13.8174 10.9974 13.5893 10.9614 13.3628 10.9822C13.1364 11.003 12.9187 11.0799 12.7295 11.2061C12.7103 11.2184 12.692 11.2321 12.6748 11.2471L10.2637 13.2979C10.2387 13.3115 10.2108 13.3191 10.1823 13.3202C10.1539 13.3212 10.1255 13.3156 10.0996 13.3037C8.54982 12.5557 6.94435 10.96 6.19337 9.43167C6.18086 9.40613 6.17436 9.37807 6.17436 9.34963C6.17436 9.3212 6.18086 9.29314 6.19337 9.2676L8.25099 6.8262C8.26575 6.80813 8.27945 6.78922 8.292 6.76956C8.41641 6.57962 8.49155 6.36169 8.51064 6.13545C8.52974 5.9092 8.49219 5.68176 8.40138 5.47366L6.34864 0.86819C6.23207 0.596324 6.03047 0.369598 5.77409 0.222042C5.51772 0.0744859 5.2204 0.0140589 4.92677 0.0498301C3.65062 0.2176 2.47922 0.844301 1.63148 1.81282C0.783733 2.78134 0.317649 4.0254 0.320324 5.31253C0.320324 12.959 6.54103 19.1797 14.1875 19.1797C15.4746 19.1822 16.7185 18.716 17.687 17.8683C18.6555 17.0206 19.2822 15.8493 19.4502 14.5733C19.4859 14.281 19.4263 13.985 19.2803 13.7294C19.1342 13.4737 18.9095 13.272 18.6397 13.1543ZM14.1875 18.0078C7.18751 18.0078 1.4922 12.3125 1.4922 5.31253C1.48893 4.3105 1.8506 3.34157 2.50963 2.58675C3.16865 1.83194 4.07995 1.34288 5.07325 1.21096H5.09571C5.13507 1.2117 5.17328 1.22431 5.20535 1.24713C5.23741 1.26996 5.26183 1.30195 5.2754 1.33889L7.33595 5.93948C7.3477 5.96506 7.35378 5.99287 7.35378 6.02102C7.35378 6.04917 7.3477 6.07699 7.33595 6.10256L5.27443 8.54983C5.25905 8.5673 5.24501 8.58591 5.23243 8.60549C5.10343 8.80242 5.02747 9.02933 5.0119 9.26423C4.99633 9.49914 5.04169 9.73408 5.14357 9.94631C6.00978 11.7198 7.79689 13.4932 9.58985 14.3594C9.80333 14.4607 10.0394 14.505 10.2751 14.4879C10.5108 14.4707 10.738 14.3928 10.9346 14.2617C10.9531 14.249 10.9717 14.2354 10.9893 14.2207L13.3994 12.1699C13.4232 12.1572 13.4495 12.1497 13.4765 12.148C13.5035 12.1463 13.5305 12.1505 13.5557 12.1602L18.1699 14.2276C18.2076 14.2436 18.2393 14.2711 18.2605 14.3062C18.2817 14.3412 18.2914 14.382 18.2881 14.4229C18.1569 15.4166 17.6683 16.3286 16.9136 16.9884C16.159 17.6481 15.1899 18.0105 14.1875 18.0078Z" fill="#222220"/>
</svg>
