<svg width="50" height="50" viewBox="0 0 50 50" fill="none" xmlns="http://www.w3.org/2000/svg">
<path d="M14.6366 10.8846C14.7528 10.7684 14.845 10.6304 14.9079 10.4786C14.9708 10.3267 15.0032 10.164 15.0032 9.99963C15.0032 9.83527 14.9708 9.67252 14.9079 9.52067C14.845 9.36882 14.7528 9.23085 14.6366 9.11463C14.5204 8.99841 14.3824 8.90622 14.2305 8.84332C14.0787 8.78042 13.9159 8.74805 13.7516 8.74805C13.5872 8.74805 13.4245 8.78042 13.2726 8.84332C13.1208 8.90622 12.9828 8.99841 12.8666 9.11463L8.75158 13.2321L7.13658 11.6146C6.90186 11.3799 6.58352 11.248 6.25158 11.248C5.91964 11.248 5.6013 11.3799 5.36658 11.6146C5.13186 11.8493 5 12.1677 5 12.4996C5 12.664 5.03237 12.8267 5.09527 12.9786C5.15817 13.1304 5.25036 13.2684 5.36658 13.3846L7.86658 15.8846C7.98269 16.001 8.12063 16.0934 8.27249 16.1564C8.42436 16.2194 8.58716 16.2519 8.75158 16.2519C8.916 16.2519 9.0788 16.2194 9.23066 16.1564C9.38253 16.0934 9.52046 16.001 9.63658 15.8846L14.6366 10.8846ZM21.2516 12.4996C20.9201 12.4996 20.6021 12.6313 20.3677 12.8657C20.1333 13.1002 20.0016 13.4181 20.0016 13.7496C20.0016 14.0811 20.1333 14.3991 20.3677 14.6335C20.6021 14.8679 20.9201 14.9996 21.2516 14.9996H43.7516C44.0831 14.9996 44.401 14.8679 44.6355 14.6335C44.8699 14.3991 45.0016 14.0811 45.0016 13.7496C45.0016 13.4181 44.8699 13.1002 44.6355 12.8657C44.401 12.6313 44.0831 12.4996 43.7516 12.4996H21.2516ZM21.2516 24.9996C20.9201 24.9996 20.6021 25.1313 20.3677 25.3657C20.1333 25.6002 20.0016 25.9181 20.0016 26.2496C20.0016 26.5811 20.1333 26.8991 20.3677 27.1335C20.6021 27.3679 20.9201 27.4996 21.2516 27.4996H43.7516C44.0831 27.4996 44.401 27.3679 44.6355 27.1335C44.8699 26.8991 45.0016 26.5811 45.0016 26.2496C45.0016 25.9181 44.8699 25.6002 44.6355 25.3657C44.401 25.1313 44.0831 24.9996 43.7516 24.9996H21.2516ZM20.0016 38.7496C20.0016 38.4181 20.1333 38.1002 20.3677 37.8657C20.6021 37.6313 20.9201 37.4996 21.2516 37.4996H43.7516C44.0831 37.4996 44.401 37.6313 44.6355 37.8657C44.8699 38.1002 45.0016 38.4181 45.0016 38.7496C45.0016 39.0811 44.8699 39.3991 44.6355 39.6335C44.401 39.8679 44.0831 39.9996 43.7516 39.9996H21.2516C20.9201 39.9996 20.6021 39.8679 20.3677 39.6335C20.1333 39.3991 20.0016 39.0811 20.0016 38.7496ZM14.6366 24.6346C14.8713 24.3999 15.0032 24.0816 15.0032 23.7496C15.0032 23.4177 14.8713 23.0993 14.6366 22.8646C14.4019 22.6299 14.0835 22.498 13.7516 22.498C13.4196 22.498 13.1013 22.6299 12.8666 22.8646L8.75158 26.9821L7.13658 25.3646C6.90186 25.1299 6.58352 24.998 6.25158 24.998C5.91964 24.998 5.6013 25.1299 5.36658 25.3646C5.13186 25.5993 5 25.9177 5 26.2496C5 26.5816 5.13186 26.8999 5.36658 27.1346L7.86658 29.6346C7.98269 29.751 8.12063 29.8434 8.27249 29.9064C8.42436 29.9694 8.58716 30.0019 8.75158 30.0019C8.916 30.0019 9.0788 29.9694 9.23066 29.9064C9.38253 29.8434 9.52046 29.751 9.63658 29.6346L14.6366 24.6346ZM14.6366 35.3646C14.753 35.4807 14.8453 35.6187 14.9084 35.7705C14.9714 35.9224 15.0038 36.0852 15.0038 36.2496C15.0038 36.414 14.9714 36.5768 14.9084 36.7287C14.8453 36.8806 14.753 37.0185 14.6366 37.1346L9.63658 42.1346C9.52046 42.251 9.38253 42.3434 9.23066 42.4064C9.0788 42.4694 8.916 42.5019 8.75158 42.5019C8.58716 42.5019 8.42436 42.4694 8.27249 42.4064C8.12063 42.3434 7.98269 42.251 7.86658 42.1346L5.36658 39.6346C5.13186 39.3999 5 39.0816 5 38.7496C5 38.4177 5.13186 38.0993 5.36658 37.8646C5.6013 37.6299 5.91964 37.498 6.25158 37.498C6.58352 37.498 6.90186 37.6299 7.13658 37.8646L8.75158 39.4821L12.8666 35.3646C12.9827 35.2482 13.1206 35.1559 13.2725 35.0928C13.4244 35.0298 13.5872 34.9974 13.7516 34.9974C13.916 34.9974 14.0788 35.0298 14.2307 35.0928C14.3825 35.1559 14.5205 35.2482 14.6366 35.3646Z" fill="white"/>
</svg>
