<svg width="443" height="47" viewBox="0 0 443 47" fill="none" xmlns="http://www.w3.org/2000/svg">
<path d="M439.354 0.646447C439.158 0.451184 438.842 0.451184 438.646 0.646447L435.464 3.82843C435.269 4.02369 435.269 4.34027 435.464 4.53553C435.66 4.7308 435.976 4.7308 436.172 4.53553L439 1.70711L441.828 4.53553C442.024 4.7308 442.34 4.7308 442.536 4.53553C442.731 4.34027 442.731 4.02369 442.536 3.82843L439.354 0.646447ZM0.5 1C0.5 1.02913 0.5 1.05824 0.5 1.08735C0.5 1.11645 0.5 1.14554 0.5 1.17461C0.5 1.20369 0.5 1.23275 0.5 1.2618C0.5 1.29084 0.5 1.31988 0.5 1.3489C0.5 1.37792 0.5 1.40692 0.5 1.43592C0.5 1.46491 0.5 1.49389 0.5 1.52286C0.5 1.55182 0.5 1.58078 0.5 1.60972C0.5 1.63865 0.5 1.66758 0.5 1.69649C0.5 1.7254 0.5 1.7543 0.5 1.78319C0.5 1.81207 0.5 1.84094 0.5 1.8698C0.5 1.89866 0.5 1.9275 0.5 1.95633C0.5 1.98516 0.5 2.01398 0.5 2.04278C0.5 2.07159 0.5 2.10038 0.5 2.12915C0.5 2.15793 0.5 2.18669 0.5 2.21544C0.5 2.24419 0.5 2.27292 0.5 2.30165C0.5 2.33037 0.5 2.35908 0.5 2.38777C0.5 2.41647 0.5 2.44515 0.5 2.47381C0.5 2.50248 0.5 2.53114 0.5 2.55978C0.5 2.58842 0.5 2.61704 0.5 2.64566C0.5 2.67427 0.5 2.70287 0.5 2.73146C0.5 2.76004 0.5 2.78861 0.5 2.81717C0.5 2.84573 0.5 2.87428 0.5 2.90281C0.5 2.93134 0.5 2.95986 0.5 2.98836C0.5 3.01687 0.5 3.04536 0.5 3.07384C0.5 3.10231 0.5 3.13078 0.5 3.15923C0.5 3.18768 0.5 3.21611 0.5 3.24454C0.5 3.27296 0.5 3.30137 0.5 3.32977C0.5 3.35816 0.5 3.38654 0.5 3.41491C0.5 3.44328 0.5 3.47164 0.5 3.49998C0.5 3.52832 0.5 3.55665 0.5 3.58496C0.5 3.61328 0.5 3.64158 0.5 3.66987C0.5 3.69815 0.5 3.72643 0.5 3.75469C0.5 3.78295 0.5 3.81119 0.5 3.83943C0.5 3.86766 0.5 3.89588 0.5 3.92408C0.5 3.95229 0.5 3.98048 0.5 4.00866C0.5 4.03684 0.5 4.065 0.5 4.09316C0.5 4.12131 0.5 4.14944 0.5 4.17757C0.5 4.20569 0.5 4.2338 0.5 4.2619C0.5 4.29 0.5 4.31808 0.5 4.34615C0.5 4.37422 0.5 4.40228 0.5 4.43032C0.5 4.45836 0.5 4.48639 0.5 4.51441C0.5 4.54242 0.5 4.57042 0.5 4.59841C0.5 4.6264 0.5 4.65438 0.5 4.68234C0.5 4.7103 0.5 4.73825 0.5 4.76618C0.5 4.79411 0.5 4.82203 0.5 4.84994C0.5 4.87785 0.5 4.90574 0.5 4.93362C0.5 4.9615 0.5 4.98937 0.5 5.01722C0.5 5.04507 0.5 5.07291 0.5 5.10074C0.5 5.12856 0.5 5.15637 0.5 5.18417C0.5 5.21197 0.5 5.23975 0.5 5.26752C0.5 5.29529 0.5 5.32305 0.5 5.3508C0.5 5.37854 0.5 5.40627 0.5 5.43399C0.5 5.4617 0.5 5.4894 0.5 5.51709C0.5 5.54478 0.5 5.57246 0.5 5.60012C0.5 5.62778 0.5 5.65543 0.5 5.68307C0.5 5.7107 0.5 5.73832 0.5 5.76593C0.5 5.79354 0.5 5.82113 0.5 5.84871C0.5 5.87629 0.5 5.90386 0.5 5.93141C0.5 5.95897 0.5 5.98651 0.5 6.01403C0.5 6.04156 0.5 6.06907 0.5 6.09657C0.5 6.12407 0.5 6.15155 0.5 6.17903C0.5 6.2065 0.5 6.23396 0.5 6.2614C0.5 6.28885 0.5 6.31628 0.5 6.34369C0.5 6.37111 0.5 6.39851 0.5 6.4259C0.5 6.4533 0.5 6.48067 0.5 6.50803C0.5 6.5354 0.5 6.56275 0.5 6.59008C0.5 6.61742 0.5 6.64474 0.5 6.67205C0.5 6.69936 0.5 6.72665 0.5 6.75393C0.5 6.78122 0.5 6.80848 0.5 6.83574C0.5 6.86299 0.5 6.89023 0.5 6.91746C0.5 6.94469 0.5 6.9719 0.5 6.9991C0.5 7.0263 0.5 7.05348 0.5 7.08066C0.5 7.10783 0.5 7.13499 0.5 7.16213C0.5 7.18928 0.5 7.21641 0.5 7.24353C0.5 7.27065 0.5 7.29775 0.5 7.32484C0.5 7.35193 0.5 7.37901 0.5 7.40607C0.5 7.43314 0.5 7.46019 0.5 7.48722C0.5 7.51426 0.5 7.54128 0.5 7.56829C0.5 7.5953 0.5 7.6223 0.5 7.64928C0.5 7.67626 0.5 7.70323 0.5 7.73018C0.5 7.75714 0.5 7.78408 0.5 7.81101C0.5 7.83794 0.5 7.86485 0.5 7.89175C0.5 7.91865 0.5 7.94554 0.5 7.97241C0.5 7.99928 0.5 8.02614 0.5 8.05299C0.5 8.07983 0.5 8.10667 0.5 8.13349C0.5 8.1603 0.5 8.18711 0.5 8.2139C0.5 8.24069 0.5 8.26747 0.5 8.29423C0.5 8.321 0.5 8.34775 0.5 8.37449C0.5 8.40122 0.5 8.42795 0.5 8.45466C0.5 8.48137 0.5 8.50806 0.5 8.53475C0.5 8.56143 0.5 8.5881 0.5 8.61475C0.5 8.64141 0.5 8.66805 0.5 8.69468C0.5 8.72131 0.5 8.74792 0.5 8.77452C0.5 8.80112 0.5 8.82771 0.5 8.85428C0.5 8.88086 0.5 8.90742 0.5 8.93396C0.5 8.96051 0.5 8.98704 0.5 9.01356C0.5 9.04008 0.5 9.06659 0.5 9.09308C0.5 9.11957 0.5 9.14605 0.5 9.17251C0.5 9.19898 0.5 9.22543 0.5 9.25187C0.5 9.27831 0.5 9.30473 0.5 9.33114C0.5 9.35755 0.5 9.38395 0.5 9.41033C0.5 9.43671 0.5 9.46308 0.5 9.48944C0.5 9.51579 0.5 9.54214 0.5 9.56846C0.5 9.59479 0.5 9.62111 0.5 9.64741C0.5 9.67371 0.5 9.7 0.5 9.72627C0.5 9.75255 0.5 9.77881 0.5 9.80505C0.5 9.8313 0.5 9.85753 0.5 9.88375C0.5 9.90997 0.5 9.93618 0.5 9.96237C0.5 9.98856 0.5 10.0147 0.5 10.0409C0.5 10.0671 0.5 10.0932 0.5 10.1194C0.5 10.1455 0.5 10.1716 0.5 10.1977C0.5 10.2238 0.5 10.2499 0.5 10.276C0.5 10.3021 0.5 10.3282 0.5 10.3542C0.5 10.3803 0.5 10.4063 0.5 10.4324C0.5 10.4584 0.5 10.4844 0.5 10.5104C0.5 10.5364 0.5 10.5624 0.5 10.5884C0.5 10.6143 0.5 10.6403 0.5 10.6663C0.5 10.6922 0.5 10.7181 0.5 10.7441C0.5 10.77 0.5 10.7959 0.5 10.8218C0.5 10.8477 0.5 10.8735 0.5 10.8994C0.5 10.9253 0.5 10.9511 0.5 10.977C0.5 11.0028 0.5 11.0286 0.5 11.0544C0.5 11.0803 0.5 11.106 0.5 11.1318C0.5 11.1576 0.5 11.1834 0.5 11.2091C0.5 11.2349 0.5 11.2606 0.5 11.2864C0.5 11.3121 0.5 11.3378 0.5 11.3635C0.5 11.3892 0.5 11.4149 0.5 11.4406C0.5 11.4663 0.5 11.4919 0.5 11.5176C0.5 11.5432 0.5 11.5688 0.5 11.5945C0.5 11.6201 0.5 11.6457 0.5 11.6713C0.5 11.6969 0.5 11.7225 0.5 11.748C0.5 11.7736 0.5 11.7991 0.5 11.8247C0.5 11.8502 0.5 11.8757 0.5 11.9013C0.5 11.9268 0.5 11.9523 0.5 11.9777C0.5 12.0032 0.5 12.0287 0.5 12.0542C0.5 12.0796 0.5 12.1051 0.5 12.1305C0.5 12.1559 0.5 12.1813 0.5 12.2067C0.5 12.2321 0.5 12.2575 0.5 12.2829C0.5 12.3083 0.5 12.3336 0.5 12.359C0.5 12.3843 0.5 12.4097 0.5 12.435C0.5 12.4603 0.5 12.4856 0.5 12.5109C0.5 12.5362 0.5 12.5615 0.5 12.5867C0.5 12.612 0.5 12.6373 0.5 12.6625C0.5 12.6877 0.5 12.713 0.5 12.7382C0.5 12.7634 0.5 12.7886 0.5 12.8138C0.5 12.8389 0.5 12.8641 0.5 12.8893C0.5 12.9144 0.5 12.9396 0.5 12.9647C0.5 12.9898 0.5 13.0149 0.5 13.04C0.5 13.0651 0.5 13.0902 0.5 13.1153C0.5 13.1404 0.5 13.1654 0.5 13.1905C0.5 13.2155 0.5 13.2406 0.5 13.2656C0.5 13.2906 0.5 13.3156 0.5 13.3406C0.5 13.3656 0.5 13.3906 0.5 13.4155C0.5 13.4405 0.5 13.4655 0.5 13.4904C0.5 13.5153 0.5 13.5403 0.5 13.5652C0.5 13.5901 0.5 13.615 0.5 13.6399C0.5 13.6648 0.5 13.6896 0.5 13.7145C0.5 13.7393 0.5 13.7642 0.5 13.789C0.5 13.8138 0.5 13.8387 0.5 13.8635C0.5 13.8883 0.5 13.913 0.5 13.9378C0.5 13.9626 0.5 13.9874 0.5 14.0121C0.5 14.0368 0.5 14.0616 0.5 14.0863C0.5 14.111 0.5 14.1357 0.5 14.1604C0.5 14.1851 0.5 14.2098 0.5 14.2345C0.5 14.2591 0.5 14.2838 0.5 14.3084C0.5 14.3331 0.5 14.3577 0.5 14.3823C0.5 14.4069 0.5 14.4315 0.5 14.4561C0.5 14.4807 0.5 14.5052 0.5 14.5298C0.5 14.5543 0.5 14.5789 0.5 14.6034C0.5 14.6279 0.5 14.6525 0.5 14.677C0.5 14.7015 0.5 14.7259 0.5 14.7504C0.5 14.7749 0.5 14.7994 0.5 14.8238C0.5 14.8483 0.5 14.8727 0.5 14.8971C0.5 14.9215 0.5 14.9459 0.5 14.9703C0.5 14.9947 0.5 15.0191 0.5 15.0435C0.5 15.0678 0.5 15.0922 0.5 15.1165C0.5 15.1409 0.5 15.1652 0.5 15.1895C0.5 15.2138 0.5 15.2381 0.5 15.2624C0.5 15.2867 0.5 15.3109 0.5 15.3352C0.5 15.3594 0.5 15.3837 0.5 15.4079C0.5 15.4321 0.5 15.4564 0.5 15.4806C0.5 15.5048 0.5 15.5289 0.5 15.5531C0.5 15.5773 0.5 15.6014 0.5 15.6256C0.5 15.6497 0.5 15.6739 0.5 15.698C0.5 15.7221 0.5 15.7462 0.5 15.7703C0.5 15.7944 0.5 15.8185 0.5 15.8425C0.5 15.8666 0.5 15.8907 0.5 15.9147C0.5 15.9387 0.5 15.9628 0.5 15.9868C0.5 16.0108 0.5 16.0348 0.5 16.0588C0.5 16.0827 0.5 16.1067 0.5 16.1307C0.5 16.1546 0.5 16.1786 0.5 16.2025C0.5 16.2264 0.5 16.2503 0.5 16.2742C0.5 16.2981 0.5 16.322 0.5 16.3459C0.5 16.3698 0.5 16.3936 0.5 16.4175C0.5 16.4413 0.5 16.4652 0.5 16.489C0.5 16.5128 0.5 16.5366 0.5 16.5604C0.5 16.5842 0.5 16.608 0.5 16.6317C0.5 16.6555 0.5 16.6792 0.5 16.703C0.5 16.7267 0.5 16.7504 0.5 16.7741C0.5 16.7978 0.5 16.8215 0.5 16.8452C0.5 16.8689 0.5 16.8926 0.5 16.9162C0.5 16.9399 0.5 16.9635 0.5 16.9872C0.5 17.0108 0.5 17.0344 0.5 17.058C0.5 17.0816 0.5 17.1052 0.5 17.1288C0.5 17.1523 0.5 17.1759 0.5 17.1994C0.5 17.223 0.5 17.2465 0.5 17.27C0.5 17.2935 0.5 17.317 0.5 17.3405C0.5 17.364 0.5 17.3875 0.5 17.411C0.5 17.4344 0.5 17.4579 0.5 17.4813C0.5 17.5048 0.5 17.5282 0.5 17.5516C0.5 17.575 0.5 17.5984 0.5 17.6218C0.5 17.6452 0.5 17.6685 0.5 17.6919C0.5 17.7152 0.5 17.7386 0.5 17.7619C0.5 17.7852 0.5 17.8085 0.5 17.8318C0.5 17.8551 0.5 17.8784 0.5 17.9017C0.5 17.925 0.5 17.9482 0.5 17.9715C0.5 17.9947 0.5 18.0179 0.5 18.0412C0.5 18.0644 0.5 18.0876 0.5 18.1108C0.5 18.134 0.5 18.1571 0.5 18.1803C0.5 18.2035 0.5 18.2266 0.5 18.2497C0.5 18.2729 0.5 18.296 0.5 18.3191C0.5 18.3422 0.5 18.3653 0.5 18.3884C0.5 18.4115 0.5 18.4345 0.5 18.4576C0.5 18.4806 0.5 18.5037 0.5 18.5267C0.5 18.5497 0.5 18.5728 0.5 18.5958C0.5 18.6187 0.5 18.6417 0.5 18.6647C0.5 18.6877 0.5 18.7106 0.5 18.7336C0.5 18.7565 0.5 18.7795 0.5 18.8024C0.5 18.8253 0.5 18.8482 0.5 18.8711C0.5 18.894 0.5 18.9168 0.5 18.9397C0.5 18.9626 0.5 18.9854 0.5 19.0082C0.5 19.0311 0.5 19.0539 0.5 19.0767C0.5 19.0995 0.5 19.1223 0.5 19.1451C0.5 19.1679 0.5 19.1906 0.5 19.2134C0.5 19.2361 0.5 19.2589 0.5 19.2816C0.5 19.3043 0.5 19.327 0.5 19.3497C0.5 19.3724 0.5 19.3951 0.5 19.4178C0.5 19.4405 0.5 19.4631 0.5 19.4858C0.5 19.5084 0.5 19.531 0.5 19.5536C0.5 19.5763 0.5 19.5989 0.5 19.6214C0.5 19.644 0.5 19.6666 0.5 19.6892C0.5 19.7117 0.5 19.7343 0.5 19.7568C0.5 19.7793 0.5 19.8019 0.5 19.8244C0.5 19.8469 0.5 19.8694 0.5 19.8918C0.5 19.9143 0.5 19.9368 0.5 19.9592C0.5 19.9817 0.5 20.0041 0.5 20.0266C0.5 20.049 0.5 20.0714 0.5 20.0938C0.5 20.1162 0.5 20.1386 0.5 20.1609C0.5 20.1833 0.5 20.2057 0.5 20.228C0.5 20.2503 0.5 20.2727 0.5 20.295C0.5 20.3173 0.5 20.3396 0.5 20.3619C0.5 20.3842 0.5 20.4064 0.5 20.4287C0.5 20.451 0.5 20.4732 0.5 20.4954C0.5 20.5177 0.5 20.5399 0.5 20.5621C0.5 20.5843 0.5 20.6065 0.5 20.6287C0.5 20.6509 0.5 20.673 0.5 20.6952C0.5 20.7173 0.5 20.7395 0.5 20.7616C0.5 20.7837 0.5 20.8058 0.5 20.8279C0.5 20.85 0.5 20.8721 0.5 20.8941C0.5 20.9162 0.5 20.9383 0.5 20.9603C0.5 20.9824 0.5 21.0044 0.5 21.0264C0.5 21.0484 0.5 21.0704 0.5 21.0924C0.5 21.1144 0.5 21.1363 0.5 21.1583C0.5 21.1803 0.5 21.2022 0.5 21.2241C0.5 21.2461 0.5 21.268 0.5 21.2899C0.5 21.3118 0.5 21.3337 0.5 21.3556C0.5 21.3774 0.5 21.3993 0.5 21.4211C0.5 21.443 0.5 21.4648 0.5 21.4867C0.5 21.5085 0.5 21.5303 0.5 21.5521C0.5 21.5739 0.5 21.5957 0.5 21.6174C0.5 21.6392 0.5 21.6609 0.5 21.6827C0.5 21.7044 0.5 21.7261 0.5 21.7479C0.5 21.7696 0.5 21.7913 0.5 21.8129C0.5 21.8346 0.5 21.8563 0.5 21.878C0.5 21.8996 0.5 21.9213 0.5 21.9429C0.5 21.9645 0.5 21.9861 0.5 22.0077C0.5 22.0293 0.5 22.0509 0.5 22.0725C0.5 22.0941 0.5 22.1156 0.5 22.1372C0.5 22.1587 0.5 22.1803 0.5 22.2018C0.5 22.2233 0.5 22.2448 0.5 22.2663C0.5 22.2878 0.5 22.3093 0.5 22.3307C0.5 22.3522 0.5 22.3737 0.5 22.3951C0.5 22.4165 0.5 22.438 0.5 22.4594C0.5 22.4808 0.5 22.5022 0.5 22.5236C0.5 22.5449 0.5 22.5663 0.5 22.5877C0.5 22.609 0.5 22.6304 0.5 22.6517C0.5 22.673 0.5 22.6943 0.5 22.7156C0.5 22.7369 0.5 22.7582 0.5 22.7795C0.5 22.8008 0.5 22.822 0.5 22.8433C0.5 22.8645 0.5 22.8858 0.5 22.907C0.5 22.9282 0.5 22.9494 0.5 22.9706C0.5 22.9918 0.5 23.013 0.5 23.0341C0.5 23.0553 0.5 23.0764 0.5 23.0976C0.5 23.1187 0.5 23.1398 0.5 23.1609C0.5 23.182 0.5 23.2031 0.5 23.2242C0.5 23.2453 0.5 23.2664 0.5 23.2874C0.5 23.3085 0.5 23.3295 0.5 23.3505C0.5 23.3716 0.5 23.3926 0.5 23.4136C0.5 23.4346 0.5 23.4556 0.5 23.4765C0.5 23.4975 0.5 23.5185 0.5 23.5394C0.5 23.5604 0.5 23.5813 0.5 23.6022C0.5 23.6231 0.5 23.644 0.5 23.6649C0.5 23.6858 0.5 23.7067 0.5 23.7275C0.5 23.7484 0.5 23.7693 0.5 23.7901C0.5 23.8109 0.5 23.8317 0.5 23.8526C0.5 23.8734 0.5 23.8942 0.5 23.9149C0.5 23.9357 0.5 23.9565 0.5 23.9772C0.5 23.998 0.5 24.0187 0.5 24.0394C0.5 24.0602 0.5 24.0809 0.5 24.1016C0.5 24.1223 0.5 24.143 0.5 24.1636C0.5 24.1843 0.5 24.205 0.5 24.2256C0.5 24.2462 0.5 24.2669 0.5 24.2875C0.5 24.3081 0.5 24.3287 0.5 24.3493C0.5 24.3699 0.5 24.3905 0.5 24.411C0.5 24.4316 0.5 24.4521 0.5 24.4727C0.5 24.4932 0.5 24.5137 0.5 24.5342C0.5 24.5547 0.5 24.5752 0.5 24.5957C0.5 24.6162 0.5 24.6366 0.5 24.6571C0.5 24.6775 0.5 24.698 0.5 24.7184C0.5 24.7388 0.5 24.7592 0.5 24.7796C0.5 24.8 0.5 24.8204 0.5 24.8408C0.5 24.8611 0.5 24.8815 0.5 24.9018C0.5 24.9222 0.5 24.9425 0.5 24.9628C0.5 24.9831 0.5 25.0034 0.5 25.0237C0.5 25.044 0.5 25.0643 0.5 25.0845C0.5 25.1048 0.5 25.125 0.5 25.1453C0.5 25.1655 0.5 25.1857 0.5 25.2059C0.5 25.2261 0.5 25.2463 0.5 25.2665C0.5 25.2867 0.5 25.3068 0.5 25.327C0.5 25.3471 0.5 25.3672 0.5 25.3874C0.5 25.4075 0.5 25.4276 0.5 25.4477C0.5 25.4678 0.5 25.4879 0.5 25.5079C0.5 25.528 0.5 25.548 0.5 25.5681C0.5 25.5881 0.5 25.6082 0.5 25.6282C0.5 25.6482 0.5 25.6682 0.5 25.6882C0.5 25.7081 0.5 25.7281 0.5 25.7481C0.5 25.768 0.5 25.788 0.5 25.8079C0.5 25.8278 0.5 25.8477 0.5 25.8676C0.5 25.8875 0.5 25.9074 0.5 25.9273C0.5 25.9472 0.5 25.967 0.5 25.9869C0.5 26.0067 0.5 26.0266 0.5 26.0464C0.5 26.0662 0.5 26.086 0.5 26.1058C0.5 26.1256 0.5 26.1454 0.5 26.1651C0.5 26.1849 0.5 26.2046 0.5 26.2244C0.5 26.2441 0.5 26.2638 0.5 26.2836C0.5 26.3033 0.5 26.323 0.5 26.3426C0.5 26.3623 0.5 26.382 0.5 26.4016C0.5 26.4213 0.5 26.4409 0.5 26.4606C0.5 26.4802 0.5 26.4998 0.5 26.5194C0.5 26.539 0.5 26.5586 0.5 26.5782C0.5 26.5977 0.5 26.6173 0.5 26.6368C0.5 26.6564 0.5 26.6759 0.5 26.6954C0.5 26.7149 0.5 26.7344 0.5 26.7539C0.5 26.7734 0.5 26.7929 0.5 26.8124C0.5 26.8318 0.5 26.8513 0.5 26.8707C0.5 26.8901 0.5 26.9096 0.5 26.929C0.5 26.9484 0.5 26.9678 0.5 26.9872C0.5 27.0065 0.5 27.0259 0.5 27.0453C0.5 27.0646 0.5 27.0839 0.5 27.1033C0.5 27.1226 0.5 27.1419 0.5 27.1612C0.5 27.1805 0.5 27.1998 0.5 27.219C0.5 27.2383 0.5 27.2576 0.5 27.2768C0.5 27.2961 0.5 27.3153 0.5 27.3345C0.5 27.3537 0.5 27.3729 0.5 27.3921C0.5 27.4113 0.5 27.4305 0.5 27.4496C0.5 27.4688 0.5 27.4879 0.5 27.5071C0.5 27.5262 0.5 27.5453 0.5 27.5644C0.5 27.5835 0.5 27.6026 0.5 27.6217C0.5 27.6408 0.5 27.6598 0.5 27.6789C0.5 27.6979 0.5 27.717 0.5 27.736C0.5 27.755 0.5 27.774 0.5 27.793C0.5 27.812 0.5 27.831 0.5 27.85C0.5 27.8689 0.5 27.8879 0.5 27.9068C0.5 27.9258 0.5 27.9447 0.5 27.9636C0.5 27.9825 0.5 28.0014 0.5 28.0203C0.5 28.0392 0.5 28.058 0.5 28.0769C0.5 28.0958 0.5 28.1146 0.5 28.1334C0.5 28.1523 0.5 28.1711 0.5 28.1899C0.5 28.2087 0.5 28.2275 0.5 28.2463C0.5 28.265 0.5 28.2838 0.5 28.3025C0.5 28.3213 0.5 28.34 0.5 28.3587C0.5 28.3775 0.5 28.3962 0.5 28.4149C0.5 28.4335 0.5 28.4522 0.5 28.4709C0.5 28.4896 0.5 28.5082 0.5 28.5268C0.5 28.5455 0.5 28.5641 0.5 28.5827C0.5 28.6013 0.5 28.6199 0.5 28.6385C0.5 28.6571 0.5 28.6757 0.5 28.6942C0.5 28.7128 0.5 28.7313 0.5 28.7498C0.5 28.7684 0.5 28.7869 0.5 28.8054C0.5 28.8239 0.5 28.8424 0.5 28.8608C0.5 28.8793 0.5 28.8978 0.5 28.9162C0.5 28.9346 0.5 28.9531 0.5 28.9715C0.5 28.9899 0.5 29.0083 0.5 29.0267C0.5 29.0451 0.5 29.0635 0.5 29.0818C0.5 29.1002 0.5 29.1185 0.5 29.1369C0.5 29.1552 0.5 29.1735 0.5 29.1918C0.5 29.2101 0.5 29.2284 0.5 29.2467C0.5 29.265 0.5 29.2833 0.5 29.3015C0.5 29.3198 0.5 29.338 0.5 29.3562C0.5 29.3745 0.5 29.3927 0.5 29.4109C0.5 29.4291 0.5 29.4472 0.5 29.4654C0.5 29.4836 0.5 29.5017 0.5 29.5199C0.5 29.538 0.5 29.5562 0.5 29.5743C0.5 29.5924 0.5 29.6105 0.5 29.6286C0.5 29.6467 0.5 29.6647 0.5 29.6828C0.5 29.7009 0.5 29.7189 0.5 29.7369C0.5 29.755 0.5 29.773 0.5 29.791C0.5 29.809 0.5 29.827 0.5 29.845C0.5 29.8629 0.5 29.8809 0.5 29.8988C0.5 29.9168 0.5 29.9347 0.5 29.9527C0.5 29.9706 0.5 29.9885 0.5 30.0064C0.5 30.0243 0.5 30.0422 0.5 30.06C0.5 30.0779 0.5 30.0957 0.5 30.1136C0.5 30.1314 0.5 30.1492 0.5 30.1671C0.5 30.1849 0.5 30.2027 0.5 30.2204C0.5 30.2382 0.5 30.256 0.5 30.2738C0.5 30.2915 0.5 30.3093 0.5 30.327C0.5 30.3447 0.5 30.3624 0.5 30.3801C0.5 30.3978 0.5 30.4155 0.5 30.4332C0.5 30.4509 0.5 30.4685 0.5 30.4862C0.5 30.5038 0.5 30.5215 0.5 30.5391C0.5 30.5567 0.5 30.5743 0.5 30.5919C0.5 30.6095 0.5 30.6271 0.5 30.6446C0.5 30.6622 0.5 30.6797 0.5 30.6973C0.5 30.7148 0.5 30.7323 0.5 30.7498C0.5 30.7674 0.5 30.7848 0.5 30.8023C0.5 30.8198 0.5 30.8373 0.5 30.8547C0.5 30.8722 0.5 30.8896 0.5 30.9071C0.5 30.9245 0.5 30.9419 0.5 30.9593C0.5 30.9767 0.5 30.9941 0.5 31.0114C0.5 31.0288 0.5 31.0462 0.5 31.0635C0.5 31.0809 0.5 31.0982 0.5 31.1155C0.5 31.1328 0.5 31.1501 0.5 31.1674C0.5 31.1847 0.5 31.202 0.5 31.2192C0.5 31.2365 0.5 31.2537 0.5 31.271C0.5 31.2882 0.5 31.3054 0.5 31.3226C0.5 31.3398 0.5 31.357 0.5 31.3742C0.5 31.3914 0.5 31.4086 0.5 31.4257C0.5 31.4429 0.5 31.46 0.5 31.4771C0.5 31.4942 0.5 31.5114 0.5 31.5284C0.5 31.5455 0.5 31.5626 0.5 31.5797C0.5 31.5968 0.5 31.6138 0.5 31.6309C0.5 31.6479 0.5 31.6649 0.5 31.6819C0.5 31.6989 0.5 31.7159 0.5 31.7329C0.5 31.7499 0.5 31.7669 0.5 31.7838C0.5 31.8008 0.5 31.8177 0.5 31.8347C0.5 31.8516 0.5 31.8685 0.5 31.8854C0.5 31.9023 0.5 31.9192 0.5 31.9361C0.5 31.953 0.5 31.9698 0.5 31.9867C0.5 32.0035 0.5 32.0204 0.5 32.0372C0.5 32.054 0.5 32.0708 0.5 32.0876C0.5 32.1044 0.5 32.1212 0.5 32.1379C0.5 32.1547 0.5 32.1714 0.5 32.1882C0.5 32.2049 0.5 32.2216 0.5 32.2384C0.5 32.2551 0.5 32.2718 0.5 32.2884C0.5 32.3051 0.5 32.3218 0.5 32.3384C0.5 32.3551 0.5 32.3717 0.5 32.3884C0.5 32.405 0.5 32.4216 0.5 32.4382C0.5 32.4548 0.5 32.4714 0.5 32.488C0.5 32.5045 0.5 32.5211 0.5 32.5376C0.5 32.5542 0.5 32.5707 0.5 32.5872C0.5 32.6038 0.5 32.6203 0.5 32.6367C0.5 32.6532 0.5 32.6697 0.5 32.6862C0.5 32.7026 0.5 32.7191 0.5 32.7355C0.5 32.7519 0.5 32.7684 0.5 32.7848C0.5 32.8012 0.5 32.8176 0.5 32.8339C0.5 32.8503 0.5 32.8667 0.5 32.883C0.5 32.8994 0.5 32.9157 0.5 32.9321C0.5 32.9484 0.5 32.9647 0.5 32.981C0.5 32.9973 0.5 33.0136 0.5 33.0298C0.5 33.0461 0.5 33.0624 0.5 33.0786C0.5 33.0948 0.5 33.1111 0.5 33.1273C0.5 33.1435 0.5 33.1597 0.5 33.1759C0.5 33.1921 0.5 33.2082 0.5 33.2244C0.5 33.2406 0.5 33.2567 0.5 33.2728C0.5 33.289 0.5 33.3051 0.5 33.3212C0.5 33.3373 0.5 33.3534 0.5 33.3694C0.5 33.3855 0.5 33.4016 0.5 33.4176C0.5 33.4337 0.5 33.4497 0.5 33.4657C0.5 33.4817 0.5 33.4978 0.5 33.5137C0.5 33.5297 0.5 33.5457 0.5 33.5617C0.5 33.5776 0.5 33.5936 0.5 33.6095C0.5 33.6255 0.5 33.6414 0.5 33.6573C0.5 33.6732 0.5 33.6891 0.5 33.705C0.5 33.7209 0.5 33.7367 0.5 33.7526C0.5 33.7685 0.5 33.7843 0.5 33.8001C0.5 33.8159 0.5 33.8318 0.5 33.8476C0.5 33.8634 0.5 33.8791 0.5 33.8949C0.5 33.9107 0.5 33.9264 0.5 33.9422C0.5 33.9579 0.5 33.9737 0.5 33.9894C0.5 34.0051 0.5 34.0208 0.5 34.0365C0.5 34.0522 0.5 34.0679 0.5 34.0835C0.5 34.0992 0.5 34.1148 0.5 34.1305C0.5 34.1461 0.5 34.1617 0.5 34.1773C0.5 34.1929 0.5 34.2085 0.5 34.2241C0.5 34.2397 0.5 34.2552 0.5 34.2708C0.5 34.2863 0.5 34.3019 0.5 34.3174C0.5 34.3329 0.5 34.3484 0.5 34.3639C0.5 34.3794 0.5 34.3949 0.5 34.4104C0.5 34.4258 0.5 34.4413 0.5 34.4567C0.5 34.4722 0.5 34.4876 0.5 34.503C0.5 34.5184 0.5 34.5338 0.5 34.5492C0.5 34.5646 0.5 34.58 0.5 34.5953C0.5 34.6107 0.5 34.626 0.5 34.6414C0.5 34.6567 0.5 34.672 0.5 34.6873C0.5 34.7026 0.5 34.7179 0.5 34.7332C0.5 34.7484 0.5 34.7637 0.5 34.779C0.5 34.7942 0.5 34.8094 0.5 34.8247C0.5 34.8399 0.5 34.8551 0.5 34.8703C0.5 34.8855 0.5 34.9006 0.5 34.9158C0.5 34.931 0.5 34.9461 0.5 34.9613C0.5 34.9764 0.5 34.9915 0.5 35.0066H1.5C1.5 34.9915 1.5 34.9764 1.5 34.9613C1.5 34.9461 1.5 34.931 1.5 34.9158C1.5 34.9006 1.5 34.8855 1.5 34.8703C1.5 34.8551 1.5 34.8399 1.5 34.8247C1.5 34.8094 1.5 34.7942 1.5 34.779C1.5 34.7637 1.5 34.7484 1.5 34.7332C1.5 34.7179 1.5 34.7026 1.5 34.6873C1.5 34.672 1.5 34.6567 1.5 34.6414C1.5 34.626 1.5 34.6107 1.5 34.5953C1.5 34.58 1.5 34.5646 1.5 34.5492C1.5 34.5338 1.5 34.5184 1.5 34.503C1.5 34.4876 1.5 34.4722 1.5 34.4567C1.5 34.4413 1.5 34.4258 1.5 34.4104C1.5 34.3949 1.5 34.3794 1.5 34.3639C1.5 34.3484 1.5 34.3329 1.5 34.3174C1.5 34.3019 1.5 34.2863 1.5 34.2708C1.5 34.2552 1.5 34.2397 1.5 34.2241C1.5 34.2085 1.5 34.1929 1.5 34.1773C1.5 34.1617 1.5 34.1461 1.5 34.1305C1.5 34.1148 1.5 34.0992 1.5 34.0835C1.5 34.0679 1.5 34.0522 1.5 34.0365C1.5 34.0208 1.5 34.0051 1.5 33.9894C1.5 33.9737 1.5 33.9579 1.5 33.9422C1.5 33.9264 1.5 33.9107 1.5 33.8949C1.5 33.8791 1.5 33.8634 1.5 33.8476C1.5 33.8318 1.5 33.8159 1.5 33.8001C1.5 33.7843 1.5 33.7685 1.5 33.7526C1.5 33.7367 1.5 33.7209 1.5 33.705C1.5 33.6891 1.5 33.6732 1.5 33.6573C1.5 33.6414 1.5 33.6255 1.5 33.6095C1.5 33.5936 1.5 33.5776 1.5 33.5617C1.5 33.5457 1.5 33.5297 1.5 33.5137C1.5 33.4978 1.5 33.4817 1.5 33.4657C1.5 33.4497 1.5 33.4337 1.5 33.4176C1.5 33.4016 1.5 33.3855 1.5 33.3694C1.5 33.3534 1.5 33.3373 1.5 33.3212C1.5 33.3051 1.5 33.289 1.5 33.2728C1.5 33.2567 1.5 33.2406 1.5 33.2244C1.5 33.2082 1.5 33.1921 1.5 33.1759C1.5 33.1597 1.5 33.1435 1.5 33.1273C1.5 33.1111 1.5 33.0948 1.5 33.0786C1.5 33.0624 1.5 33.0461 1.5 33.0298C1.5 33.0136 1.5 32.9973 1.5 32.981C1.5 32.9647 1.5 32.9484 1.5 32.9321C1.5 32.9157 1.5 32.8994 1.5 32.883C1.5 32.8667 1.5 32.8503 1.5 32.8339C1.5 32.8176 1.5 32.8012 1.5 32.7848C1.5 32.7684 1.5 32.7519 1.5 32.7355C1.5 32.7191 1.5 32.7026 1.5 32.6862C1.5 32.6697 1.5 32.6532 1.5 32.6367C1.5 32.6203 1.5 32.6038 1.5 32.5872C1.5 32.5707 1.5 32.5542 1.5 32.5376C1.5 32.5211 1.5 32.5045 1.5 32.488C1.5 32.4714 1.5 32.4548 1.5 32.4382C1.5 32.4216 1.5 32.405 1.5 32.3884C1.5 32.3717 1.5 32.3551 1.5 32.3384C1.5 32.3218 1.5 32.3051 1.5 32.2884C1.5 32.2718 1.5 32.2551 1.5 32.2384C1.5 32.2216 1.5 32.2049 1.5 32.1882C1.5 32.1714 1.5 32.1547 1.5 32.1379C1.5 32.1212 1.5 32.1044 1.5 32.0876C1.5 32.0708 1.5 32.054 1.5 32.0372C1.5 32.0204 1.5 32.0035 1.5 31.9867C1.5 31.9698 1.5 31.953 1.5 31.9361C1.5 31.9192 1.5 31.9023 1.5 31.8854C1.5 31.8685 1.5 31.8516 1.5 31.8347C1.5 31.8177 1.5 31.8008 1.5 31.7838C1.5 31.7669 1.5 31.7499 1.5 31.7329C1.5 31.7159 1.5 31.6989 1.5 31.6819C1.5 31.6649 1.5 31.6479 1.5 31.6309C1.5 31.6138 1.5 31.5968 1.5 31.5797C1.5 31.5626 1.5 31.5455 1.5 31.5284C1.5 31.5114 1.5 31.4942 1.5 31.4771C1.5 31.46 1.5 31.4429 1.5 31.4257C1.5 31.4086 1.5 31.3914 1.5 31.3742C1.5 31.357 1.5 31.3398 1.5 31.3226C1.5 31.3054 1.5 31.2882 1.5 31.271C1.5 31.2537 1.5 31.2365 1.5 31.2192C1.5 31.202 1.5 31.1847 1.5 31.1674C1.5 31.1501 1.5 31.1328 1.5 31.1155C1.5 31.0982 1.5 31.0809 1.5 31.0635C1.5 31.0462 1.5 31.0288 1.5 31.0114C1.5 30.9941 1.5 30.9767 1.5 30.9593C1.5 30.9419 1.5 30.9245 1.5 30.9071C1.5 30.8896 1.5 30.8722 1.5 30.8547C1.5 30.8373 1.5 30.8198 1.5 30.8023C1.5 30.7848 1.5 30.7674 1.5 30.7498C1.5 30.7323 1.5 30.7148 1.5 30.6973C1.5 30.6797 1.5 30.6622 1.5 30.6446C1.5 30.6271 1.5 30.6095 1.5 30.5919C1.5 30.5743 1.5 30.5567 1.5 30.5391C1.5 30.5215 1.5 30.5038 1.5 30.4862C1.5 30.4685 1.5 30.4509 1.5 30.4332C1.5 30.4155 1.5 30.3978 1.5 30.3801C1.5 30.3624 1.5 30.3447 1.5 30.327C1.5 30.3093 1.5 30.2915 1.5 30.2738C1.5 30.256 1.5 30.2382 1.5 30.2204C1.5 30.2027 1.5 30.1849 1.5 30.1671C1.5 30.1492 1.5 30.1314 1.5 30.1136C1.5 30.0957 1.5 30.0779 1.5 30.06C1.5 30.0422 1.5 30.0243 1.5 30.0064C1.5 29.9885 1.5 29.9706 1.5 29.9527C1.5 29.9347 1.5 29.9168 1.5 29.8988C1.5 29.8809 1.5 29.8629 1.5 29.845C1.5 29.827 1.5 29.809 1.5 29.791C1.5 29.773 1.5 29.755 1.5 29.7369C1.5 29.7189 1.5 29.7009 1.5 29.6828C1.5 29.6647 1.5 29.6467 1.5 29.6286C1.5 29.6105 1.5 29.5924 1.5 29.5743C1.5 29.5562 1.5 29.538 1.5 29.5199C1.5 29.5017 1.5 29.4836 1.5 29.4654C1.5 29.4472 1.5 29.4291 1.5 29.4109C1.5 29.3927 1.5 29.3745 1.5 29.3562C1.5 29.338 1.5 29.3198 1.5 29.3015C1.5 29.2833 1.5 29.265 1.5 29.2467C1.5 29.2284 1.5 29.2101 1.5 29.1918C1.5 29.1735 1.5 29.1552 1.5 29.1369C1.5 29.1185 1.5 29.1002 1.5 29.0818C1.5 29.0635 1.5 29.0451 1.5 29.0267C1.5 29.0083 1.5 28.9899 1.5 28.9715C1.5 28.9531 1.5 28.9346 1.5 28.9162C1.5 28.8978 1.5 28.8793 1.5 28.8608C1.5 28.8424 1.5 28.8239 1.5 28.8054C1.5 28.7869 1.5 28.7684 1.5 28.7498C1.5 28.7313 1.5 28.7128 1.5 28.6942C1.5 28.6757 1.5 28.6571 1.5 28.6385C1.5 28.6199 1.5 28.6013 1.5 28.5827C1.5 28.5641 1.5 28.5455 1.5 28.5268C1.5 28.5082 1.5 28.4896 1.5 28.4709C1.5 28.4522 1.5 28.4335 1.5 28.4149C1.5 28.3962 1.5 28.3775 1.5 28.3587C1.5 28.34 1.5 28.3213 1.5 28.3025C1.5 28.2838 1.5 28.265 1.5 28.2463C1.5 28.2275 1.5 28.2087 1.5 28.1899C1.5 28.1711 1.5 28.1523 1.5 28.1334C1.5 28.1146 1.5 28.0958 1.5 28.0769C1.5 28.058 1.5 28.0392 1.5 28.0203C1.5 28.0014 1.5 27.9825 1.5 27.9636C1.5 27.9447 1.5 27.9258 1.5 27.9068C1.5 27.8879 1.5 27.8689 1.5 27.85C1.5 27.831 1.5 27.812 1.5 27.793C1.5 27.774 1.5 27.755 1.5 27.736C1.5 27.717 1.5 27.6979 1.5 27.6789C1.5 27.6598 1.5 27.6408 1.5 27.6217C1.5 27.6026 1.5 27.5835 1.5 27.5644C1.5 27.5453 1.5 27.5262 1.5 27.5071C1.5 27.4879 1.5 27.4688 1.5 27.4496C1.5 27.4305 1.5 27.4113 1.5 27.3921C1.5 27.3729 1.5 27.3537 1.5 27.3345C1.5 27.3153 1.5 27.2961 1.5 27.2768C1.5 27.2576 1.5 27.2383 1.5 27.219C1.5 27.1998 1.5 27.1805 1.5 27.1612C1.5 27.1419 1.5 27.1226 1.5 27.1033C1.5 27.0839 1.5 27.0646 1.5 27.0453C1.5 27.0259 1.5 27.0065 1.5 26.9872C1.5 26.9678 1.5 26.9484 1.5 26.929C1.5 26.9096 1.5 26.8901 1.5 26.8707C1.5 26.8513 1.5 26.8318 1.5 26.8124C1.5 26.7929 1.5 26.7734 1.5 26.7539C1.5 26.7344 1.5 26.7149 1.5 26.6954C1.5 26.6759 1.5 26.6564 1.5 26.6368C1.5 26.6173 1.5 26.5977 1.5 26.5782C1.5 26.5586 1.5 26.539 1.5 26.5194C1.5 26.4998 1.5 26.4802 1.5 26.4606C1.5 26.4409 1.5 26.4213 1.5 26.4016C1.5 26.382 1.5 26.3623 1.5 26.3426C1.5 26.323 1.5 26.3033 1.5 26.2836C1.5 26.2638 1.5 26.2441 1.5 26.2244C1.5 26.2046 1.5 26.1849 1.5 26.1651C1.5 26.1454 1.5 26.1256 1.5 26.1058C1.5 26.086 1.5 26.0662 1.5 26.0464C1.5 26.0266 1.5 26.0067 1.5 25.9869C1.5 25.967 1.5 25.9472 1.5 25.9273C1.5 25.9074 1.5 25.8875 1.5 25.8676C1.5 25.8477 1.5 25.8278 1.5 25.8079C1.5 25.788 1.5 25.768 1.5 25.7481C1.5 25.7281 1.5 25.7081 1.5 25.6882C1.5 25.6682 1.5 25.6482 1.5 25.6282C1.5 25.6082 1.5 25.5881 1.5 25.5681C1.5 25.548 1.5 25.528 1.5 25.5079C1.5 25.4879 1.5 25.4678 1.5 25.4477C1.5 25.4276 1.5 25.4075 1.5 25.3874C1.5 25.3672 1.5 25.3471 1.5 25.327C1.5 25.3068 1.5 25.2867 1.5 25.2665C1.5 25.2463 1.5 25.2261 1.5 25.2059C1.5 25.1857 1.5 25.1655 1.5 25.1453C1.5 25.125 1.5 25.1048 1.5 25.0845C1.5 25.0643 1.5 25.044 1.5 25.0237C1.5 25.0034 1.5 24.9831 1.5 24.9628C1.5 24.9425 1.5 24.9222 1.5 24.9018C1.5 24.8815 1.5 24.8611 1.5 24.8408C1.5 24.8204 1.5 24.8 1.5 24.7796C1.5 24.7592 1.5 24.7388 1.5 24.7184C1.5 24.698 1.5 24.6775 1.5 24.6571C1.5 24.6366 1.5 24.6162 1.5 24.5957C1.5 24.5752 1.5 24.5547 1.5 24.5342C1.5 24.5137 1.5 24.4932 1.5 24.4727C1.5 24.4521 1.5 24.4316 1.5 24.411C1.5 24.3905 1.5 24.3699 1.5 24.3493C1.5 24.3287 1.5 24.3081 1.5 24.2875C1.5 24.2669 1.5 24.2462 1.5 24.2256C1.5 24.205 1.5 24.1843 1.5 24.1636C1.5 24.143 1.5 24.1223 1.5 24.1016C1.5 24.0809 1.5 24.0602 1.5 24.0394C1.5 24.0187 1.5 23.998 1.5 23.9772C1.5 23.9565 1.5 23.9357 1.5 23.9149C1.5 23.8942 1.5 23.8734 1.5 23.8526C1.5 23.8317 1.5 23.8109 1.5 23.7901C1.5 23.7693 1.5 23.7484 1.5 23.7275C1.5 23.7067 1.5 23.6858 1.5 23.6649C1.5 23.644 1.5 23.6231 1.5 23.6022C1.5 23.5813 1.5 23.5604 1.5 23.5394C1.5 23.5185 1.5 23.4975 1.5 23.4765C1.5 23.4556 1.5 23.4346 1.5 23.4136C1.5 23.3926 1.5 23.3716 1.5 23.3505C1.5 23.3295 1.5 23.3085 1.5 23.2874C1.5 23.2664 1.5 23.2453 1.5 23.2242C1.5 23.2031 1.5 23.182 1.5 23.1609C1.5 23.1398 1.5 23.1187 1.5 23.0976C1.5 23.0764 1.5 23.0553 1.5 23.0341C1.5 23.013 1.5 22.9918 1.5 22.9706C1.5 22.9494 1.5 22.9282 1.5 22.907C1.5 22.8858 1.5 22.8645 1.5 22.8433C1.5 22.822 1.5 22.8008 1.5 22.7795C1.5 22.7582 1.5 22.7369 1.5 22.7156C1.5 22.6943 1.5 22.673 1.5 22.6517C1.5 22.6304 1.5 22.609 1.5 22.5877C1.5 22.5663 1.5 22.5449 1.5 22.5236C1.5 22.5022 1.5 22.4808 1.5 22.4594C1.5 22.438 1.5 22.4165 1.5 22.3951C1.5 22.3737 1.5 22.3522 1.5 22.3307C1.5 22.3093 1.5 22.2878 1.5 22.2663C1.5 22.2448 1.5 22.2233 1.5 22.2018C1.5 22.1803 1.5 22.1587 1.5 22.1372C1.5 22.1156 1.5 22.0941 1.5 22.0725C1.5 22.0509 1.5 22.0293 1.5 22.0077C1.5 21.9861 1.5 21.9645 1.5 21.9429C1.5 21.9213 1.5 21.8996 1.5 21.878C1.5 21.8563 1.5 21.8346 1.5 21.8129C1.5 21.7913 1.5 21.7696 1.5 21.7479C1.5 21.7261 1.5 21.7044 1.5 21.6827C1.5 21.6609 1.5 21.6392 1.5 21.6174C1.5 21.5957 1.5 21.5739 1.5 21.5521C1.5 21.5303 1.5 21.5085 1.5 21.4867C1.5 21.4648 1.5 21.443 1.5 21.4211C1.5 21.3993 1.5 21.3774 1.5 21.3556C1.5 21.3337 1.5 21.3118 1.5 21.2899C1.5 21.268 1.5 21.2461 1.5 21.2241C1.5 21.2022 1.5 21.1803 1.5 21.1583C1.5 21.1363 1.5 21.1144 1.5 21.0924C1.5 21.0704 1.5 21.0484 1.5 21.0264C1.5 21.0044 1.5 20.9824 1.5 20.9603C1.5 20.9383 1.5 20.9162 1.5 20.8941C1.5 20.8721 1.5 20.85 1.5 20.8279C1.5 20.8058 1.5 20.7837 1.5 20.7616C1.5 20.7395 1.5 20.7173 1.5 20.6952C1.5 20.673 1.5 20.6509 1.5 20.6287C1.5 20.6065 1.5 20.5843 1.5 20.5621C1.5 20.5399 1.5 20.5177 1.5 20.4954C1.5 20.4732 1.5 20.451 1.5 20.4287C1.5 20.4064 1.5 20.3842 1.5 20.3619C1.5 20.3396 1.5 20.3173 1.5 20.295C1.5 20.2727 1.5 20.2503 1.5 20.228C1.5 20.2057 1.5 20.1833 1.5 20.1609C1.5 20.1386 1.5 20.1162 1.5 20.0938C1.5 20.0714 1.5 20.049 1.5 20.0266C1.5 20.0041 1.5 19.9817 1.5 19.9592C1.5 19.9368 1.5 19.9143 1.5 19.8918C1.5 19.8694 1.5 19.8469 1.5 19.8244C1.5 19.8019 1.5 19.7793 1.5 19.7568C1.5 19.7343 1.5 19.7117 1.5 19.6892C1.5 19.6666 1.5 19.644 1.5 19.6214C1.5 19.5989 1.5 19.5763 1.5 19.5536C1.5 19.531 1.5 19.5084 1.5 19.4858C1.5 19.4631 1.5 19.4405 1.5 19.4178C1.5 19.3951 1.5 19.3724 1.5 19.3497C1.5 19.327 1.5 19.3043 1.5 19.2816C1.5 19.2589 1.5 19.2361 1.5 19.2134C1.5 19.1906 1.5 19.1679 1.5 19.1451C1.5 19.1223 1.5 19.0995 1.5 19.0767C1.5 19.0539 1.5 19.0311 1.5 19.0082C1.5 18.9854 1.5 18.9626 1.5 18.9397C1.5 18.9168 1.5 18.894 1.5 18.8711C1.5 18.8482 1.5 18.8253 1.5 18.8024C1.5 18.7795 1.5 18.7565 1.5 18.7336C1.5 18.7106 1.5 18.6877 1.5 18.6647C1.5 18.6417 1.5 18.6187 1.5 18.5958C1.5 18.5728 1.5 18.5497 1.5 18.5267C1.5 18.5037 1.5 18.4806 1.5 18.4576C1.5 18.4345 1.5 18.4115 1.5 18.3884C1.5 18.3653 1.5 18.3422 1.5 18.3191C1.5 18.296 1.5 18.2729 1.5 18.2497C1.5 18.2266 1.5 18.2035 1.5 18.1803C1.5 18.1571 1.5 18.134 1.5 18.1108C1.5 18.0876 1.5 18.0644 1.5 18.0412C1.5 18.0179 1.5 17.9947 1.5 17.9715C1.5 17.9482 1.5 17.925 1.5 17.9017C1.5 17.8784 1.5 17.8551 1.5 17.8318C1.5 17.8085 1.5 17.7852 1.5 17.7619C1.5 17.7386 1.5 17.7152 1.5 17.6919C1.5 17.6685 1.5 17.6452 1.5 17.6218C1.5 17.5984 1.5 17.575 1.5 17.5516C1.5 17.5282 1.5 17.5048 1.5 17.4813C1.5 17.4579 1.5 17.4344 1.5 17.411C1.5 17.3875 1.5 17.364 1.5 17.3405C1.5 17.317 1.5 17.2935 1.5 17.27C1.5 17.2465 1.5 17.223 1.5 17.1994C1.5 17.1759 1.5 17.1523 1.5 17.1288C1.5 17.1052 1.5 17.0816 1.5 17.058C1.5 17.0344 1.5 17.0108 1.5 16.9872C1.5 16.9635 1.5 16.9399 1.5 16.9162C1.5 16.8926 1.5 16.8689 1.5 16.8452C1.5 16.8215 1.5 16.7978 1.5 16.7741C1.5 16.7504 1.5 16.7267 1.5 16.703C1.5 16.6792 1.5 16.6555 1.5 16.6317C1.5 16.608 1.5 16.5842 1.5 16.5604C1.5 16.5366 1.5 16.5128 1.5 16.489C1.5 16.4652 1.5 16.4413 1.5 16.4175C1.5 16.3936 1.5 16.3698 1.5 16.3459C1.5 16.322 1.5 16.2981 1.5 16.2742C1.5 16.2503 1.5 16.2264 1.5 16.2025C1.5 16.1786 1.5 16.1546 1.5 16.1307C1.5 16.1067 1.5 16.0827 1.5 16.0588C1.5 16.0348 1.5 16.0108 1.5 15.9868C1.5 15.9628 1.5 15.9387 1.5 15.9147C1.5 15.8907 1.5 15.8666 1.5 15.8425C1.5 15.8185 1.5 15.7944 1.5 15.7703C1.5 15.7462 1.5 15.7221 1.5 15.698C1.5 15.6739 1.5 15.6497 1.5 15.6256C1.5 15.6014 1.5 15.5773 1.5 15.5531C1.5 15.5289 1.5 15.5048 1.5 15.4806C1.5 15.4564 1.5 15.4321 1.5 15.4079C1.5 15.3837 1.5 15.3594 1.5 15.3352C1.5 15.3109 1.5 15.2867 1.5 15.2624C1.5 15.2381 1.5 15.2138 1.5 15.1895C1.5 15.1652 1.5 15.1409 1.5 15.1165C1.5 15.0922 1.5 15.0678 1.5 15.0435C1.5 15.0191 1.5 14.9947 1.5 14.9703C1.5 14.9459 1.5 14.9215 1.5 14.8971C1.5 14.8727 1.5 14.8483 1.5 14.8238C1.5 14.7994 1.5 14.7749 1.5 14.7504C1.5 14.7259 1.5 14.7015 1.5 14.677C1.5 14.6525 1.5 14.6279 1.5 14.6034C1.5 14.5789 1.5 14.5543 1.5 14.5298C1.5 14.5052 1.5 14.4807 1.5 14.4561C1.5 14.4315 1.5 14.4069 1.5 14.3823C1.5 14.3577 1.5 14.3331 1.5 14.3084C1.5 14.2838 1.5 14.2591 1.5 14.2345C1.5 14.2098 1.5 14.1851 1.5 14.1604C1.5 14.1357 1.5 14.111 1.5 14.0863C1.5 14.0616 1.5 14.0368 1.5 14.0121C1.5 13.9874 1.5 13.9626 1.5 13.9378C1.5 13.913 1.5 13.8883 1.5 13.8635C1.5 13.8387 1.5 13.8138 1.5 13.789C1.5 13.7642 1.5 13.7393 1.5 13.7145C1.5 13.6896 1.5 13.6648 1.5 13.6399C1.5 13.615 1.5 13.5901 1.5 13.5652C1.5 13.5403 1.5 13.5153 1.5 13.4904C1.5 13.4655 1.5 13.4405 1.5 13.4155C1.5 13.3906 1.5 13.3656 1.5 13.3406C1.5 13.3156 1.5 13.2906 1.5 13.2656C1.5 13.2406 1.5 13.2155 1.5 13.1905C1.5 13.1654 1.5 13.1404 1.5 13.1153C1.5 13.0902 1.5 13.0651 1.5 13.04C1.5 13.0149 1.5 12.9898 1.5 12.9647C1.5 12.9396 1.5 12.9144 1.5 12.8893C1.5 12.8641 1.5 12.8389 1.5 12.8138C1.5 12.7886 1.5 12.7634 1.5 12.7382C1.5 12.713 1.5 12.6877 1.5 12.6625C1.5 12.6373 1.5 12.612 1.5 12.5867C1.5 12.5615 1.5 12.5362 1.5 12.5109C1.5 12.4856 1.5 12.4603 1.5 12.435C1.5 12.4097 1.5 12.3843 1.5 12.359C1.5 12.3336 1.5 12.3083 1.5 12.2829C1.5 12.2575 1.5 12.2321 1.5 12.2067C1.5 12.1813 1.5 12.1559 1.5 12.1305C1.5 12.1051 1.5 12.0796 1.5 12.0542C1.5 12.0287 1.5 12.0032 1.5 11.9777C1.5 11.9523 1.5 11.9268 1.5 11.9013C1.5 11.8757 1.5 11.8502 1.5 11.8247C1.5 11.7991 1.5 11.7736 1.5 11.748C1.5 11.7225 1.5 11.6969 1.5 11.6713C1.5 11.6457 1.5 11.6201 1.5 11.5945C1.5 11.5688 1.5 11.5432 1.5 11.5176C1.5 11.4919 1.5 11.4663 1.5 11.4406C1.5 11.4149 1.5 11.3892 1.5 11.3635C1.5 11.3378 1.5 11.3121 1.5 11.2864C1.5 11.2606 1.5 11.2349 1.5 11.2091C1.5 11.1834 1.5 11.1576 1.5 11.1318C1.5 11.106 1.5 11.0803 1.5 11.0544C1.5 11.0286 1.5 11.0028 1.5 10.977C1.5 10.9511 1.5 10.9253 1.5 10.8994C1.5 10.8735 1.5 10.8477 1.5 10.8218C1.5 10.7959 1.5 10.77 1.5 10.7441C1.5 10.7181 1.5 10.6922 1.5 10.6663C1.5 10.6403 1.5 10.6143 1.5 10.5884C1.5 10.5624 1.5 10.5364 1.5 10.5104C1.5 10.4844 1.5 10.4584 1.5 10.4324C1.5 10.4063 1.5 10.3803 1.5 10.3542C1.5 10.3282 1.5 10.3021 1.5 10.276C1.5 10.2499 1.5 10.2238 1.5 10.1977C1.5 10.1716 1.5 10.1455 1.5 10.1194C1.5 10.0932 1.5 10.0671 1.5 10.0409C1.5 10.0147 1.5 9.98856 1.5 9.96237C1.5 9.93618 1.5 9.90997 1.5 9.88375C1.5 9.85753 1.5 9.8313 1.5 9.80505C1.5 9.77881 1.5 9.75255 1.5 9.72627C1.5 9.7 1.5 9.67371 1.5 9.64741C1.5 9.62111 1.5 9.59479 1.5 9.56846C1.5 9.54214 1.5 9.51579 1.5 9.48944C1.5 9.46308 1.5 9.43671 1.5 9.41033C1.5 9.38395 1.5 9.35755 1.5 9.33114C1.5 9.30473 1.5 9.27831 1.5 9.25187C1.5 9.22543 1.5 9.19898 1.5 9.17251C1.5 9.14605 1.5 9.11957 1.5 9.09308C1.5 9.06659 1.5 9.04008 1.5 9.01356C1.5 8.98704 1.5 8.96051 1.5 8.93396C1.5 8.90742 1.5 8.88086 1.5 8.85428C1.5 8.82771 1.5 8.80112 1.5 8.77452C1.5 8.74792 1.5 8.72131 1.5 8.69468C1.5 8.66805 1.5 8.64141 1.5 8.61475C1.5 8.5881 1.5 8.56143 1.5 8.53475C1.5 8.50806 1.5 8.48137 1.5 8.45466C1.5 8.42795 1.5 8.40122 1.5 8.37449C1.5 8.34775 1.5 8.321 1.5 8.29423C1.5 8.26747 1.5 8.24069 1.5 8.2139C1.5 8.18711 1.5 8.1603 1.5 8.13349C1.5 8.10667 1.5 8.07983 1.5 8.05299C1.5 8.02614 1.5 7.99928 1.5 7.97241C1.5 7.94554 1.5 7.91865 1.5 7.89175C1.5 7.86485 1.5 7.83794 1.5 7.81101C1.5 7.78408 1.5 7.75714 1.5 7.73018C1.5 7.70323 1.5 7.67626 1.5 7.64928C1.5 7.6223 1.5 7.5953 1.5 7.56829C1.5 7.54128 1.5 7.51426 1.5 7.48722C1.5 7.46019 1.5 7.43314 1.5 7.40607C1.5 7.37901 1.5 7.35193 1.5 7.32484C1.5 7.29775 1.5 7.27065 1.5 7.24353C1.5 7.21641 1.5 7.18928 1.5 7.16213C1.5 7.13499 1.5 7.10783 1.5 7.08066C1.5 7.05348 1.5 7.0263 1.5 6.9991C1.5 6.9719 1.5 6.94469 1.5 6.91746C1.5 6.89023 1.5 6.86299 1.5 6.83574C1.5 6.80848 1.5 6.78122 1.5 6.75393C1.5 6.72665 1.5 6.69936 1.5 6.67205C1.5 6.64474 1.5 6.61742 1.5 6.59008C1.5 6.56275 1.5 6.5354 1.5 6.50803C1.5 6.48067 1.5 6.4533 1.5 6.4259C1.5 6.39851 1.5 6.37111 1.5 6.34369C1.5 6.31628 1.5 6.28885 1.5 6.2614C1.5 6.23396 1.5 6.2065 1.5 6.17903C1.5 6.15155 1.5 6.12407 1.5 6.09657C1.5 6.06907 1.5 6.04156 1.5 6.01403C1.5 5.98651 1.5 5.95897 1.5 5.93141C1.5 5.90386 1.5 5.87629 1.5 5.84871C1.5 5.82113 1.5 5.79354 1.5 5.76593C1.5 5.73832 1.5 5.7107 1.5 5.68307C1.5 5.65543 1.5 5.62778 1.5 5.60012C1.5 5.57246 1.5 5.54478 1.5 5.51709C1.5 5.4894 1.5 5.4617 1.5 5.43399C1.5 5.40627 1.5 5.37854 1.5 5.3508C1.5 5.32305 1.5 5.29529 1.5 5.26752C1.5 5.23975 1.5 5.21197 1.5 5.18417C1.5 5.15637 1.5 5.12856 1.5 5.10074C1.5 5.07291 1.5 5.04507 1.5 5.01722C1.5 4.98937 1.5 4.9615 1.5 4.93362C1.5 4.90574 1.5 4.87785 1.5 4.84994C1.5 4.82203 1.5 4.79411 1.5 4.76618C1.5 4.73825 1.5 4.7103 1.5 4.68234C1.5 4.65438 1.5 4.6264 1.5 4.59841C1.5 4.57042 1.5 4.54242 1.5 4.51441C1.5 4.48639 1.5 4.45836 1.5 4.43032C1.5 4.40228 1.5 4.37422 1.5 4.34615C1.5 4.31808 1.5 4.29 1.5 4.2619C1.5 4.2338 1.5 4.20569 1.5 4.17757C1.5 4.14944 1.5 4.12131 1.5 4.09316C1.5 4.065 1.5 4.03684 1.5 4.00866C1.5 3.98048 1.5 3.95229 1.5 3.92408C1.5 3.89588 1.5 3.86766 1.5 3.83943C1.5 3.81119 1.5 3.78295 1.5 3.75469C1.5 3.72643 1.5 3.69815 1.5 3.66987C1.5 3.64158 1.5 3.61328 1.5 3.58496C1.5 3.55665 1.5 3.52832 1.5 3.49998C1.5 3.47164 1.5 3.44328 1.5 3.41491C1.5 3.38654 1.5 3.35816 1.5 3.32977C1.5 3.30137 1.5 3.27296 1.5 3.24454C1.5 3.21611 1.5 3.18768 1.5 3.15923C1.5 3.13078 1.5 3.10231 1.5 3.07384C1.5 3.04536 1.5 3.01687 1.5 2.98836C1.5 2.95986 1.5 2.93134 1.5 2.90281C1.5 2.87428 1.5 2.84573 1.5 2.81717C1.5 2.78861 1.5 2.76004 1.5 2.73146C1.5 2.70287 1.5 2.67427 1.5 2.64566C1.5 2.61704 1.5 2.58842 1.5 2.55978C1.5 2.53114 1.5 2.50248 1.5 2.47381C1.5 2.44515 1.5 2.41647 1.5 2.38777C1.5 2.35908 1.5 2.33037 1.5 2.30165C1.5 2.27292 1.5 2.24419 1.5 2.21544C1.5 2.18669 1.5 2.15793 1.5 2.12915C1.5 2.10038 1.5 2.07159 1.5 2.04278C1.5 2.01398 1.5 1.98516 1.5 1.95633C1.5 1.9275 1.5 1.89866 1.5 1.8698C1.5 1.84094 1.5 1.81207 1.5 1.78319C1.5 1.7543 1.5 1.7254 1.5 1.69649C1.5 1.66758 1.5 1.63865 1.5 1.60972C1.5 1.58078 1.5 1.55182 1.5 1.52286C1.5 1.49389 1.5 1.46491 1.5 1.43592C1.5 1.40692 1.5 1.37792 1.5 1.3489C1.5 1.31988 1.5 1.29084 1.5 1.2618C1.5 1.23275 1.5 1.20369 1.5 1.17461C1.5 1.14554 1.5 1.11645 1.5 1.08735C1.5 1.05824 1.5 1.02913 1.5 1H0.5ZM12 46.5H428V45.5H12V46.5ZM439.5 35V27.0106H438.5V35H439.5ZM439.5 27.0106V1H438.5V27.0106H439.5ZM428 46.5C434.351 46.5 439.5 41.3513 439.5 35H438.5C438.5 40.799 433.799 45.5 428 45.5V46.5ZM0.5 35.0066C0.5 41.3583 5.64912 46.5 12 46.5V45.5C6.20062 45.5 1.5 40.8052 1.5 35.0066H0.5Z" fill="#9D9C98"/>
</svg>
