<svg width="450" height="47" viewBox="0 0 450 47" fill="none" xmlns="http://www.w3.org/2000/svg">
<path d="M446.354 46.3536C446.158 46.5488 445.842 46.5488 445.646 46.3536L442.464 43.1716C442.269 42.9763 442.269 42.6597 442.464 42.4645C442.66 42.2692 442.976 42.2692 443.172 42.4645L446 45.2929L448.828 42.4645C449.024 42.2692 449.34 42.2692 449.536 42.4645C449.731 42.6597 449.731 42.9763 449.536 43.1716L446.354 46.3536ZM0.5 46C0.5 45.9709 0.5 45.9418 0.5 45.9127C0.5 45.8836 0.5 45.8545 0.5 45.8254C0.5 45.7963 0.5 45.7673 0.5 45.7382C0.5 45.7092 0.5 45.6801 0.5 45.6511C0.5 45.6221 0.5 45.5931 0.5 45.5641C0.5 45.5351 0.5 45.5061 0.5 45.4771C0.5 45.4482 0.5 45.4192 0.5 45.3903C0.5 45.3613 0.5 45.3324 0.5 45.3035C0.5 45.2746 0.5 45.2457 0.5 45.2168C0.5 45.1879 0.5 45.1591 0.5 45.1302C0.5 45.1013 0.5 45.0725 0.5 45.0437C0.5 45.0148 0.5 44.986 0.5 44.9572C0.5 44.9284 0.5 44.8996 0.5 44.8708C0.5 44.8421 0.5 44.8133 0.5 44.7846C0.5 44.7558 0.5 44.7271 0.5 44.6984C0.5 44.6696 0.5 44.6409 0.5 44.6122C0.5 44.5835 0.5 44.5549 0.5 44.5262C0.5 44.4975 0.5 44.4689 0.5 44.4402C0.5 44.4116 0.5 44.383 0.5 44.3543C0.5 44.3257 0.5 44.2971 0.5 44.2685C0.5 44.24 0.5 44.2114 0.5 44.1828C0.5 44.1543 0.5 44.1257 0.5 44.0972C0.5 44.0687 0.5 44.0401 0.5 44.0116C0.5 43.9831 0.5 43.9546 0.5 43.9262C0.5 43.8977 0.5 43.8692 0.5 43.8408C0.5 43.8123 0.5 43.7839 0.5 43.7555C0.5 43.727 0.5 43.6986 0.5 43.6702C0.5 43.6418 0.5 43.6135 0.5 43.5851C0.5 43.5567 0.5 43.5284 0.5 43.5C0.5 43.4717 0.5 43.4434 0.5 43.415C0.5 43.3867 0.5 43.3584 0.5 43.3301C0.5 43.3018 0.5 43.2736 0.5 43.2453C0.5 43.2171 0.5 43.1888 0.5 43.1606C0.5 43.1323 0.5 43.1041 0.5 43.0759C0.5 43.0477 0.5 43.0195 0.5 42.9913C0.5 42.9632 0.5 42.935 0.5 42.9068C0.5 42.8787 0.5 42.8506 0.5 42.8224C0.5 42.7943 0.5 42.7662 0.5 42.7381C0.5 42.71 0.5 42.6819 0.5 42.6538C0.5 42.6258 0.5 42.5977 0.5 42.5697C0.5 42.5416 0.5 42.5136 0.5 42.4856C0.5 42.4576 0.5 42.4296 0.5 42.4016C0.5 42.3736 0.5 42.3456 0.5 42.3177C0.5 42.2897 0.5 42.2618 0.5 42.2338C0.5 42.2059 0.5 42.178 0.5 42.1501C0.5 42.1222 0.5 42.0943 0.5 42.0664C0.5 42.0385 0.5 42.0106 0.5 41.9828C0.5 41.9549 0.5 41.9271 0.5 41.8993C0.5 41.8714 0.5 41.8436 0.5 41.8158C0.5 41.788 0.5 41.7602 0.5 41.7325C0.5 41.7047 0.5 41.6769 0.5 41.6492C0.5 41.6215 0.5 41.5937 0.5 41.566C0.5 41.5383 0.5 41.5106 0.5 41.4829C0.5 41.4552 0.5 41.4275 0.5 41.3999C0.5 41.3722 0.5 41.3446 0.5 41.3169C0.5 41.2893 0.5 41.2617 0.5 41.2341C0.5 41.2065 0.5 41.1789 0.5 41.1513C0.5 41.1237 0.5 41.0961 0.5 41.0686C0.5 41.041 0.5 41.0135 0.5 40.986C0.5 40.9584 0.5 40.9309 0.5 40.9034C0.5 40.8759 0.5 40.8484 0.5 40.821C0.5 40.7935 0.5 40.766 0.5 40.7386C0.5 40.7112 0.5 40.6837 0.5 40.6563C0.5 40.6289 0.5 40.6015 0.5 40.5741C0.5 40.5467 0.5 40.5193 0.5 40.492C0.5 40.4646 0.5 40.4373 0.5 40.4099C0.5 40.3826 0.5 40.3553 0.5 40.328C0.5 40.3006 0.5 40.2733 0.5 40.2461C0.5 40.2188 0.5 40.1915 0.5 40.1643C0.5 40.137 0.5 40.1098 0.5 40.0825C0.5 40.0553 0.5 40.0281 0.5 40.0009C0.5 39.9737 0.5 39.9465 0.5 39.9193C0.5 39.8922 0.5 39.865 0.5 39.8379C0.5 39.8107 0.5 39.7836 0.5 39.7565C0.5 39.7294 0.5 39.7022 0.5 39.6752C0.5 39.6481 0.5 39.621 0.5 39.5939C0.5 39.5669 0.5 39.5398 0.5 39.5128C0.5 39.4857 0.5 39.4587 0.5 39.4317C0.5 39.4047 0.5 39.3777 0.5 39.3507C0.5 39.3237 0.5 39.2968 0.5 39.2698C0.5 39.2429 0.5 39.2159 0.5 39.189C0.5 39.1621 0.5 39.1352 0.5 39.1083C0.5 39.0813 0.5 39.0545 0.5 39.0276C0.5 39.0007 0.5 38.9739 0.5 38.947C0.5 38.9202 0.5 38.8933 0.5 38.8665C0.5 38.8397 0.5 38.8129 0.5 38.7861C0.5 38.7593 0.5 38.7325 0.5 38.7058C0.5 38.679 0.5 38.6523 0.5 38.6255C0.5 38.5988 0.5 38.5721 0.5 38.5453C0.5 38.5186 0.5 38.4919 0.5 38.4653C0.5 38.4386 0.5 38.4119 0.5 38.3852C0.5 38.3586 0.5 38.332 0.5 38.3053C0.5 38.2787 0.5 38.2521 0.5 38.2255C0.5 38.1989 0.5 38.1723 0.5 38.1457C0.5 38.1191 0.5 38.0926 0.5 38.066C0.5 38.0395 0.5 38.013 0.5 37.9864C0.5 37.9599 0.5 37.9334 0.5 37.9069C0.5 37.8804 0.5 37.854 0.5 37.8275C0.5 37.801 0.5 37.7746 0.5 37.7481C0.5 37.7217 0.5 37.6953 0.5 37.6689C0.5 37.6425 0.5 37.6161 0.5 37.5897C0.5 37.5633 0.5 37.5369 0.5 37.5106C0.5 37.4842 0.5 37.4579 0.5 37.4315C0.5 37.4052 0.5 37.3789 0.5 37.3526C0.5 37.3263 0.5 37.3 0.5 37.2737C0.5 37.2475 0.5 37.2212 0.5 37.1949C0.5 37.1687 0.5 37.1425 0.5 37.1162C0.5 37.09 0.5 37.0638 0.5 37.0376C0.5 37.0114 0.5 36.9853 0.5 36.9591C0.5 36.9329 0.5 36.9068 0.5 36.8806C0.5 36.8545 0.5 36.8284 0.5 36.8023C0.5 36.7762 0.5 36.7501 0.5 36.724C0.5 36.6979 0.5 36.6718 0.5 36.6458C0.5 36.6197 0.5 36.5937 0.5 36.5676C0.5 36.5416 0.5 36.5156 0.5 36.4896C0.5 36.4636 0.5 36.4376 0.5 36.4116C0.5 36.3857 0.5 36.3597 0.5 36.3337C0.5 36.3078 0.5 36.2819 0.5 36.2559C0.5 36.23 0.5 36.2041 0.5 36.1782C0.5 36.1523 0.5 36.1265 0.5 36.1006C0.5 36.0747 0.5 36.0489 0.5 36.023C0.5 35.9972 0.5 35.9714 0.5 35.9456C0.5 35.9197 0.5 35.894 0.5 35.8682C0.5 35.8424 0.5 35.8166 0.5 35.7909C0.5 35.7651 0.5 35.7394 0.5 35.7136C0.5 35.6879 0.5 35.6622 0.5 35.6365C0.5 35.6108 0.5 35.5851 0.5 35.5594C0.5 35.5337 0.5 35.5081 0.5 35.4824C0.5 35.4568 0.5 35.4312 0.5 35.4055C0.5 35.3799 0.5 35.3543 0.5 35.3287C0.5 35.3031 0.5 35.2775 0.5 35.252C0.5 35.2264 0.5 35.2009 0.5 35.1753C0.5 35.1498 0.5 35.1243 0.5 35.0987C0.5 35.0732 0.5 35.0477 0.5 35.0223C0.5 34.9968 0.5 34.9713 0.5 34.9458C0.5 34.9204 0.5 34.8949 0.5 34.8695C0.5 34.8441 0.5 34.8187 0.5 34.7933C0.5 34.7679 0.5 34.7425 0.5 34.7171C0.5 34.6917 0.5 34.6664 0.5 34.641C0.5 34.6157 0.5 34.5903 0.5 34.565C0.5 34.5397 0.5 34.5144 0.5 34.4891C0.5 34.4638 0.5 34.4385 0.5 34.4133C0.5 34.388 0.5 34.3627 0.5 34.3375C0.5 34.3123 0.5 34.287 0.5 34.2618C0.5 34.2366 0.5 34.2114 0.5 34.1862C0.5 34.1611 0.5 34.1359 0.5 34.1107C0.5 34.0856 0.5 34.0604 0.5 34.0353C0.5 34.0102 0.5 33.9851 0.5 33.96C0.5 33.9349 0.5 33.9098 0.5 33.8847C0.5 33.8596 0.5 33.8346 0.5 33.8095C0.5 33.7845 0.5 33.7594 0.5 33.7344C0.5 33.7094 0.5 33.6844 0.5 33.6594C0.5 33.6344 0.5 33.6094 0.5 33.5845C0.5 33.5595 0.5 33.5345 0.5 33.5096C0.5 33.4847 0.5 33.4597 0.5 33.4348C0.5 33.4099 0.5 33.385 0.5 33.3601C0.5 33.3352 0.5 33.3104 0.5 33.2855C0.5 33.2607 0.5 33.2358 0.5 33.211C0.5 33.1862 0.5 33.1613 0.5 33.1365C0.5 33.1117 0.5 33.087 0.5 33.0622C0.5 33.0374 0.5 33.0126 0.5 32.9879C0.5 32.9632 0.5 32.9384 0.5 32.9137C0.5 32.889 0.5 32.8643 0.5 32.8396C0.5 32.8149 0.5 32.7902 0.5 32.7655C0.5 32.7409 0.5 32.7162 0.5 32.6916C0.5 32.6669 0.5 32.6423 0.5 32.6177C0.5 32.5931 0.5 32.5685 0.5 32.5439C0.5 32.5193 0.5 32.4948 0.5 32.4702C0.5 32.4457 0.5 32.4211 0.5 32.3966C0.5 32.3721 0.5 32.3475 0.5 32.323C0.5 32.2985 0.5 32.2741 0.5 32.2496C0.5 32.2251 0.5 32.2006 0.5 32.1762C0.5 32.1517 0.5 32.1273 0.5 32.1029C0.5 32.0785 0.5 32.0541 0.5 32.0297C0.5 32.0053 0.5 31.9809 0.5 31.9565C0.5 31.9322 0.5 31.9078 0.5 31.8835C0.5 31.8591 0.5 31.8348 0.5 31.8105C0.5 31.7862 0.5 31.7619 0.5 31.7376C0.5 31.7133 0.5 31.6891 0.5 31.6648C0.5 31.6406 0.5 31.6163 0.5 31.5921C0.5 31.5679 0.5 31.5436 0.5 31.5194C0.5 31.4952 0.5 31.4711 0.5 31.4469C0.5 31.4227 0.5 31.3986 0.5 31.3744C0.5 31.3503 0.5 31.3261 0.5 31.302C0.5 31.2779 0.5 31.2538 0.5 31.2297C0.5 31.2056 0.5 31.1815 0.5 31.1575C0.5 31.1334 0.5 31.1093 0.5 31.0853C0.5 31.0613 0.5 31.0372 0.5 31.0132C0.5 30.9892 0.5 30.9652 0.5 30.9412C0.5 30.9173 0.5 30.8933 0.5 30.8693C0.5 30.8454 0.5 30.8214 0.5 30.7975C0.5 30.7736 0.5 30.7497 0.5 30.7258C0.5 30.7019 0.5 30.678 0.5 30.6541C0.5 30.6302 0.5 30.6064 0.5 30.5825C0.5 30.5587 0.5 30.5348 0.5 30.511C0.5 30.4872 0.5 30.4634 0.5 30.4396C0.5 30.4158 0.5 30.392 0.5 30.3683C0.5 30.3445 0.5 30.3208 0.5 30.297C0.5 30.2733 0.5 30.2496 0.5 30.2259C0.5 30.2022 0.5 30.1785 0.5 30.1548C0.5 30.1311 0.5 30.1074 0.5 30.0838C0.5 30.0601 0.5 30.0365 0.5 30.0128C0.5 29.9892 0.5 29.9656 0.5 29.942C0.5 29.9184 0.5 29.8948 0.5 29.8712C0.5 29.8477 0.5 29.8241 0.5 29.8006C0.5 29.777 0.5 29.7535 0.5 29.73C0.5 29.7065 0.5 29.683 0.5 29.6595C0.5 29.636 0.5 29.6125 0.5 29.589C0.5 29.5656 0.5 29.5421 0.5 29.5187C0.5 29.4952 0.5 29.4718 0.5 29.4484C0.5 29.425 0.5 29.4016 0.5 29.3782C0.5 29.3548 0.5 29.3315 0.5 29.3081C0.5 29.2848 0.5 29.2614 0.5 29.2381C0.5 29.2148 0.5 29.1915 0.5 29.1682C0.5 29.1449 0.5 29.1216 0.5 29.0983C0.5 29.075 0.5 29.0518 0.5 29.0285C0.5 29.0053 0.5 28.9821 0.5 28.9588C0.5 28.9356 0.5 28.9124 0.5 28.8892C0.5 28.866 0.5 28.8429 0.5 28.8197C0.5 28.7965 0.5 28.7734 0.5 28.7503C0.5 28.7271 0.5 28.704 0.5 28.6809C0.5 28.6578 0.5 28.6347 0.5 28.6116C0.5 28.5885 0.5 28.5655 0.5 28.5424C0.5 28.5194 0.5 28.4963 0.5 28.4733C0.5 28.4503 0.5 28.4272 0.5 28.4042C0.5 28.3813 0.5 28.3583 0.5 28.3353C0.5 28.3123 0.5 28.2894 0.5 28.2664C0.5 28.2435 0.5 28.2205 0.5 28.1976C0.5 28.1747 0.5 28.1518 0.5 28.1289C0.5 28.106 0.5 28.0832 0.5 28.0603C0.5 28.0374 0.5 28.0146 0.5 27.9918C0.5 27.9689 0.5 27.9461 0.5 27.9233C0.5 27.9005 0.5 27.8777 0.5 27.8549C0.5 27.8321 0.5 27.8094 0.5 27.7866C0.5 27.7639 0.5 27.7411 0.5 27.7184C0.5 27.6957 0.5 27.673 0.5 27.6503C0.5 27.6276 0.5 27.6049 0.5 27.5822C0.5 27.5595 0.5 27.5369 0.5 27.5142C0.5 27.4916 0.5 27.469 0.5 27.4464C0.5 27.4237 0.5 27.4011 0.5 27.3786C0.5 27.356 0.5 27.3334 0.5 27.3108C0.5 27.2883 0.5 27.2657 0.5 27.2432C0.5 27.2207 0.5 27.1981 0.5 27.1756C0.5 27.1531 0.5 27.1306 0.5 27.1082C0.5 27.0857 0.5 27.0632 0.5 27.0408C0.5 27.0183 0.5 26.9959 0.5 26.9734C0.5 26.951 0.5 26.9286 0.5 26.9062C0.5 26.8838 0.5 26.8614 0.5 26.8391C0.5 26.8167 0.5 26.7943 0.5 26.772C0.5 26.7497 0.5 26.7273 0.5 26.705C0.5 26.6827 0.5 26.6604 0.5 26.6381C0.5 26.6158 0.5 26.5936 0.5 26.5713C0.5 26.549 0.5 26.5268 0.5 26.5046C0.5 26.4823 0.5 26.4601 0.5 26.4379C0.5 26.4157 0.5 26.3935 0.5 26.3713C0.5 26.3491 0.5 26.327 0.5 26.3048C0.5 26.2827 0.5 26.2605 0.5 26.2384C0.5 26.2163 0.5 26.1942 0.5 26.1721C0.5 26.15 0.5 26.1279 0.5 26.1059C0.5 26.0838 0.5 26.0617 0.5 26.0397C0.5 26.0176 0.5 25.9956 0.5 25.9736C0.5 25.9516 0.5 25.9296 0.5 25.9076C0.5 25.8856 0.5 25.8637 0.5 25.8417C0.5 25.8197 0.5 25.7978 0.5 25.7759C0.5 25.7539 0.5 25.732 0.5 25.7101C0.5 25.6882 0.5 25.6663 0.5 25.6444C0.5 25.6226 0.5 25.6007 0.5 25.5789C0.5 25.557 0.5 25.5352 0.5 25.5133C0.5 25.4915 0.5 25.4697 0.5 25.4479C0.5 25.4261 0.5 25.4043 0.5 25.3826C0.5 25.3608 0.5 25.3391 0.5 25.3173C0.5 25.2956 0.5 25.2739 0.5 25.2521C0.5 25.2304 0.5 25.2087 0.5 25.1871C0.5 25.1654 0.5 25.1437 0.5 25.122C0.5 25.1004 0.5 25.0787 0.5 25.0571C0.5 25.0355 0.5 25.0139 0.5 24.9923C0.5 24.9707 0.5 24.9491 0.5 24.9275C0.5 24.9059 0.5 24.8844 0.5 24.8628C0.5 24.8413 0.5 24.8197 0.5 24.7982C0.5 24.7767 0.5 24.7552 0.5 24.7337C0.5 24.7122 0.5 24.6907 0.5 24.6693C0.5 24.6478 0.5 24.6263 0.5 24.6049C0.5 24.5835 0.5 24.562 0.5 24.5406C0.5 24.5192 0.5 24.4978 0.5 24.4764C0.5 24.4551 0.5 24.4337 0.5 24.4123C0.5 24.391 0.5 24.3696 0.5 24.3483C0.5 24.327 0.5 24.3057 0.5 24.2844C0.5 24.2631 0.5 24.2418 0.5 24.2205C0.5 24.1992 0.5 24.178 0.5 24.1567C0.5 24.1355 0.5 24.1142 0.5 24.093C0.5 24.0718 0.5 24.0506 0.5 24.0294C0.5 24.0082 0.5 23.987 0.5 23.9659C0.5 23.9447 0.5 23.9236 0.5 23.9024C0.5 23.8813 0.5 23.8602 0.5 23.8391C0.5 23.818 0.5 23.7969 0.5 23.7758C0.5 23.7547 0.5 23.7336 0.5 23.7126C0.5 23.6915 0.5 23.6705 0.5 23.6495C0.5 23.6284 0.5 23.6074 0.5 23.5864C0.5 23.5654 0.5 23.5444 0.5 23.5235C0.5 23.5025 0.5 23.4815 0.5 23.4606C0.5 23.4396 0.5 23.4187 0.5 23.3978C0.5 23.3769 0.5 23.356 0.5 23.3351C0.5 23.3142 0.5 23.2933 0.5 23.2725C0.5 23.2516 0.5 23.2307 0.5 23.2099C0.5 23.1891 0.5 23.1683 0.5 23.1474C0.5 23.1266 0.5 23.1058 0.5 23.0851C0.5 23.0643 0.5 23.0435 0.5 23.0228C0.5 23.002 0.5 22.9813 0.5 22.9606C0.5 22.9398 0.5 22.9191 0.5 22.8984C0.5 22.8777 0.5 22.857 0.5 22.8364C0.5 22.8157 0.5 22.795 0.5 22.7744C0.5 22.7538 0.5 22.7331 0.5 22.7125C0.5 22.6919 0.5 22.6713 0.5 22.6507C0.5 22.6301 0.5 22.6095 0.5 22.589C0.5 22.5684 0.5 22.5479 0.5 22.5273C0.5 22.5068 0.5 22.4863 0.5 22.4658C0.5 22.4453 0.5 22.4248 0.5 22.4043C0.5 22.3838 0.5 22.3634 0.5 22.3429C0.5 22.3225 0.5 22.302 0.5 22.2816C0.5 22.2612 0.5 22.2408 0.5 22.2204C0.5 22.2 0.5 22.1796 0.5 22.1592C0.5 22.1389 0.5 22.1185 0.5 22.0982C0.5 22.0778 0.5 22.0575 0.5 22.0372C0.5 22.0169 0.5 21.9966 0.5 21.9763C0.5 21.956 0.5 21.9357 0.5 21.9155C0.5 21.8952 0.5 21.875 0.5 21.8547C0.5 21.8345 0.5 21.8143 0.5 21.7941C0.5 21.7739 0.5 21.7537 0.5 21.7335C0.5 21.7133 0.5 21.6932 0.5 21.673C0.5 21.6529 0.5 21.6328 0.5 21.6126C0.5 21.5925 0.5 21.5724 0.5 21.5523C0.5 21.5322 0.5 21.5121 0.5 21.4921C0.5 21.472 0.5 21.452 0.5 21.4319C0.5 21.4119 0.5 21.3918 0.5 21.3718C0.5 21.3518 0.5 21.3318 0.5 21.3118C0.5 21.2919 0.5 21.2719 0.5 21.2519C0.5 21.232 0.5 21.212 0.5 21.1921C0.5 21.1722 0.5 21.1523 0.5 21.1324C0.5 21.1125 0.5 21.0926 0.5 21.0727C0.5 21.0528 0.5 21.033 0.5 21.0131C0.5 20.9933 0.5 20.9734 0.5 20.9536C0.5 20.9338 0.5 20.914 0.5 20.8942C0.5 20.8744 0.5 20.8546 0.5 20.8349C0.5 20.8151 0.5 20.7954 0.5 20.7756C0.5 20.7559 0.5 20.7362 0.5 20.7164C0.5 20.6967 0.5 20.677 0.5 20.6574C0.5 20.6377 0.5 20.618 0.5 20.5984C0.5 20.5787 0.5 20.5591 0.5 20.5394C0.5 20.5198 0.5 20.5002 0.5 20.4806C0.5 20.461 0.5 20.4414 0.5 20.4218C0.5 20.4023 0.5 20.3827 0.5 20.3632C0.5 20.3436 0.5 20.3241 0.5 20.3046C0.5 20.2851 0.5 20.2656 0.5 20.2461C0.5 20.2266 0.5 20.2071 0.5 20.1876C0.5 20.1682 0.5 20.1487 0.5 20.1293C0.5 20.1099 0.5 20.0904 0.5 20.071C0.5 20.0516 0.5 20.0322 0.5 20.0128C0.5 19.9935 0.5 19.9741 0.5 19.9547C0.5 19.9354 0.5 19.9161 0.5 19.8967C0.5 19.8774 0.5 19.8581 0.5 19.8388C0.5 19.8195 0.5 19.8002 0.5 19.781C0.5 19.7617 0.5 19.7424 0.5 19.7232C0.5 19.7039 0.5 19.6847 0.5 19.6655C0.5 19.6463 0.5 19.6271 0.5 19.6079C0.5 19.5887 0.5 19.5695 0.5 19.5504C0.5 19.5312 0.5 19.5121 0.5 19.4929C0.5 19.4738 0.5 19.4547 0.5 19.4356C0.5 19.4165 0.5 19.3974 0.5 19.3783C0.5 19.3592 0.5 19.3402 0.5 19.3211C0.5 19.3021 0.5 19.283 0.5 19.264C0.5 19.245 0.5 19.226 0.5 19.207C0.5 19.188 0.5 19.169 0.5 19.15C0.5 19.1311 0.5 19.1121 0.5 19.0932C0.5 19.0742 0.5 19.0553 0.5 19.0364C0.5 19.0175 0.5 18.9986 0.5 18.9797C0.5 18.9608 0.5 18.942 0.5 18.9231C0.5 18.9042 0.5 18.8854 0.5 18.8666C0.5 18.8477 0.5 18.8289 0.5 18.8101C0.5 18.7913 0.5 18.7725 0.5 18.7537C0.5 18.735 0.5 18.7162 0.5 18.6975C0.5 18.6787 0.5 18.66 0.5 18.6413C0.5 18.6225 0.5 18.6038 0.5 18.5851C0.5 18.5665 0.5 18.5478 0.5 18.5291C0.5 18.5104 0.5 18.4918 0.5 18.4732C0.5 18.4545 0.5 18.4359 0.5 18.4173C0.5 18.3987 0.5 18.3801 0.5 18.3615C0.5 18.3429 0.5 18.3243 0.5 18.3058C0.5 18.2872 0.5 18.2687 0.5 18.2502C0.5 18.2316 0.5 18.2131 0.5 18.1946C0.5 18.1761 0.5 18.1576 0.5 18.1392C0.5 18.1207 0.5 18.1022 0.5 18.0838C0.5 18.0654 0.5 18.0469 0.5 18.0285C0.5 18.0101 0.5 17.9917 0.5 17.9733C0.5 17.9549 0.5 17.9365 0.5 17.9182C0.5 17.8998 0.5 17.8815 0.5 17.8631C0.5 17.8448 0.5 17.8265 0.5 17.8082C0.5 17.7899 0.5 17.7716 0.5 17.7533C0.5 17.735 0.5 17.7167 0.5 17.6985C0.5 17.6802 0.5 17.662 0.5 17.6438C0.5 17.6255 0.5 17.6073 0.5 17.5891C0.5 17.5709 0.5 17.5528 0.5 17.5346C0.5 17.5164 0.5 17.4983 0.5 17.4801C0.5 17.462 0.5 17.4438 0.5 17.4257C0.5 17.4076 0.5 17.3895 0.5 17.3714C0.5 17.3533 0.5 17.3353 0.5 17.3172C0.5 17.2991 0.5 17.2811 0.5 17.2631C0.5 17.245 0.5 17.227 0.5 17.209C0.5 17.191 0.5 17.173 0.5 17.155C0.5 17.1371 0.5 17.1191 0.5 17.1012C0.5 17.0832 0.5 17.0653 0.5 17.0473C0.5 17.0294 0.5 17.0115 0.5 16.9936C0.5 16.9757 0.5 16.9578 0.5 16.94C0.5 16.9221 0.5 16.9043 0.5 16.8864C0.5 16.8686 0.5 16.8508 0.5 16.8329C0.5 16.8151 0.5 16.7973 0.5 16.7796C0.5 16.7618 0.5 16.744 0.5 16.7262C0.5 16.7085 0.5 16.6907 0.5 16.673C0.5 16.6553 0.5 16.6376 0.5 16.6199C0.5 16.6022 0.5 16.5845 0.5 16.5668C0.5 16.5491 0.5 16.5315 0.5 16.5138C0.5 16.4962 0.5 16.4785 0.5 16.4609C0.5 16.4433 0.5 16.4257 0.5 16.4081C0.5 16.3905 0.5 16.3729 0.5 16.3554C0.5 16.3378 0.5 16.3203 0.5 16.3027C0.5 16.2852 0.5 16.2677 0.5 16.2502C0.5 16.2326 0.5 16.2152 0.5 16.1977C0.5 16.1802 0.5 16.1627 0.5 16.1453C0.5 16.1278 0.5 16.1104 0.5 16.0929C0.5 16.0755 0.5 16.0581 0.5 16.0407C0.5 16.0233 0.5 16.0059 0.5 15.9886C0.5 15.9712 0.5 15.9538 0.5 15.9365C0.5 15.9191 0.5 15.9018 0.5 15.8845C0.5 15.8672 0.5 15.8499 0.5 15.8326C0.5 15.8153 0.5 15.798 0.5 15.7808C0.5 15.7635 0.5 15.7463 0.5 15.729C0.5 15.7118 0.5 15.6946 0.5 15.6774C0.5 15.6602 0.5 15.643 0.5 15.6258C0.5 15.6086 0.5 15.5914 0.5 15.5743C0.5 15.5571 0.5 15.54 0.5 15.5229C0.5 15.5058 0.5 15.4886 0.5 15.4716C0.5 15.4545 0.5 15.4374 0.5 15.4203C0.5 15.4032 0.5 15.3862 0.5 15.3691C0.5 15.3521 0.5 15.3351 0.5 15.3181C0.5 15.3011 0.5 15.2841 0.5 15.2671C0.5 15.2501 0.5 15.2331 0.5 15.2162C0.5 15.1992 0.5 15.1823 0.5 15.1653C0.5 15.1484 0.5 15.1315 0.5 15.1146C0.5 15.0977 0.5 15.0808 0.5 15.0639C0.5 15.047 0.5 15.0302 0.5 15.0133C0.5 14.9965 0.5 14.9796 0.5 14.9628C0.5 14.946 0.5 14.9292 0.5 14.9124C0.5 14.8956 0.5 14.8788 0.5 14.8621C0.5 14.8453 0.5 14.8286 0.5 14.8118C0.5 14.7951 0.5 14.7784 0.5 14.7616C0.5 14.7449 0.5 14.7282 0.5 14.7116C0.5 14.6949 0.5 14.6782 0.5 14.6616C0.5 14.6449 0.5 14.6283 0.5 14.6116C0.5 14.595 0.5 14.5784 0.5 14.5618C0.5 14.5452 0.5 14.5286 0.5 14.512C0.5 14.4955 0.5 14.4789 0.5 14.4624C0.5 14.4458 0.5 14.4293 0.5 14.4128C0.5 14.3962 0.5 14.3797 0.5 14.3633C0.5 14.3468 0.5 14.3303 0.5 14.3138C0.5 14.2974 0.5 14.2809 0.5 14.2645C0.5 14.2481 0.5 14.2316 0.5 14.2152C0.5 14.1988 0.5 14.1824 0.5 14.1661C0.5 14.1497 0.5 14.1333 0.5 14.117C0.5 14.1006 0.5 14.0843 0.5 14.0679C0.5 14.0516 0.5 14.0353 0.5 14.019C0.5 14.0027 0.5 13.9864 0.5 13.9702C0.5 13.9539 0.5 13.9376 0.5 13.9214C0.5 13.9052 0.5 13.8889 0.5 13.8727C0.5 13.8565 0.5 13.8403 0.5 13.8241C0.5 13.8079 0.5 13.7918 0.5 13.7756C0.5 13.7594 0.5 13.7433 0.5 13.7272C0.5 13.711 0.5 13.6949 0.5 13.6788C0.5 13.6627 0.5 13.6466 0.5 13.6306C0.5 13.6145 0.5 13.5984 0.5 13.5824C0.5 13.5663 0.5 13.5503 0.5 13.5343C0.5 13.5183 0.5 13.5022 0.5 13.4863C0.5 13.4703 0.5 13.4543 0.5 13.4383C0.5 13.4224 0.5 13.4064 0.5 13.3905C0.5 13.3745 0.5 13.3586 0.5 13.3427C0.5 13.3268 0.5 13.3109 0.5 13.295C0.5 13.2791 0.5 13.2633 0.5 13.2474C0.5 13.2315 0.5 13.2157 0.5 13.1999C0.5 13.1841 0.5 13.1682 0.5 13.1524C0.5 13.1366 0.5 13.1209 0.5 13.1051C0.5 13.0893 0.5 13.0736 0.5 13.0578C0.5 13.0421 0.5 13.0263 0.5 13.0106C0.5 12.9949 0.5 12.9792 0.5 12.9635C0.5 12.9478 0.5 12.9321 0.5 12.9165C0.5 12.9008 0.5 12.8852 0.5 12.8695C0.5 12.8539 0.5 12.8383 0.5 12.8227C0.5 12.8071 0.5 12.7915 0.5 12.7759C0.5 12.7603 0.5 12.7448 0.5 12.7292C0.5 12.7137 0.5 12.6981 0.5 12.6826C0.5 12.6671 0.5 12.6516 0.5 12.6361C0.5 12.6206 0.5 12.6051 0.5 12.5896C0.5 12.5742 0.5 12.5587 0.5 12.5433C0.5 12.5278 0.5 12.5124 0.5 12.497C0.5 12.4816 0.5 12.4662 0.5 12.4508C0.5 12.4354 0.5 12.42 0.5 12.4047C0.5 12.3893 0.5 12.374 0.5 12.3586C0.5 12.3433 0.5 12.328 0.5 12.3127C0.5 12.2974 0.5 12.2821 0.5 12.2668C0.5 12.2516 0.5 12.2363 0.5 12.221C0.5 12.2058 0.5 12.1906 0.5 12.1753C0.5 12.1601 0.5 12.1449 0.5 12.1297C0.5 12.1145 0.5 12.0994 0.5 12.0842C0.5 12.069 0.5 12.0539 0.5 12.0387C0.5 12.0236 0.5 12.0085 0.5 11.9934H1.5C1.5 12.0085 1.5 12.0236 1.5 12.0387C1.5 12.0539 1.5 12.069 1.5 12.0842C1.5 12.0994 1.5 12.1145 1.5 12.1297C1.5 12.1449 1.5 12.1601 1.5 12.1753C1.5 12.1906 1.5 12.2058 1.5 12.221C1.5 12.2363 1.5 12.2516 1.5 12.2668C1.5 12.2821 1.5 12.2974 1.5 12.3127C1.5 12.328 1.5 12.3433 1.5 12.3586C1.5 12.374 1.5 12.3893 1.5 12.4047C1.5 12.42 1.5 12.4354 1.5 12.4508C1.5 12.4662 1.5 12.4816 1.5 12.497C1.5 12.5124 1.5 12.5278 1.5 12.5433C1.5 12.5587 1.5 12.5742 1.5 12.5896C1.5 12.6051 1.5 12.6206 1.5 12.6361C1.5 12.6516 1.5 12.6671 1.5 12.6826C1.5 12.6981 1.5 12.7137 1.5 12.7292C1.5 12.7448 1.5 12.7603 1.5 12.7759C1.5 12.7915 1.5 12.8071 1.5 12.8227C1.5 12.8383 1.5 12.8539 1.5 12.8695C1.5 12.8852 1.5 12.9008 1.5 12.9165C1.5 12.9321 1.5 12.9478 1.5 12.9635C1.5 12.9792 1.5 12.9949 1.5 13.0106C1.5 13.0263 1.5 13.0421 1.5 13.0578C1.5 13.0736 1.5 13.0893 1.5 13.1051C1.5 13.1209 1.5 13.1366 1.5 13.1524C1.5 13.1682 1.5 13.1841 1.5 13.1999C1.5 13.2157 1.5 13.2315 1.5 13.2474C1.5 13.2633 1.5 13.2791 1.5 13.295C1.5 13.3109 1.5 13.3268 1.5 13.3427C1.5 13.3586 1.5 13.3745 1.5 13.3905C1.5 13.4064 1.5 13.4224 1.5 13.4383C1.5 13.4543 1.5 13.4703 1.5 13.4863C1.5 13.5022 1.5 13.5183 1.5 13.5343C1.5 13.5503 1.5 13.5663 1.5 13.5824C1.5 13.5984 1.5 13.6145 1.5 13.6306C1.5 13.6466 1.5 13.6627 1.5 13.6788C1.5 13.6949 1.5 13.711 1.5 13.7272C1.5 13.7433 1.5 13.7594 1.5 13.7756C1.5 13.7918 1.5 13.8079 1.5 13.8241C1.5 13.8403 1.5 13.8565 1.5 13.8727C1.5 13.8889 1.5 13.9052 1.5 13.9214C1.5 13.9376 1.5 13.9539 1.5 13.9702C1.5 13.9864 1.5 14.0027 1.5 14.019C1.5 14.0353 1.5 14.0516 1.5 14.0679C1.5 14.0843 1.5 14.1006 1.5 14.117C1.5 14.1333 1.5 14.1497 1.5 14.1661C1.5 14.1824 1.5 14.1988 1.5 14.2152C1.5 14.2316 1.5 14.2481 1.5 14.2645C1.5 14.2809 1.5 14.2974 1.5 14.3138C1.5 14.3303 1.5 14.3468 1.5 14.3633C1.5 14.3797 1.5 14.3962 1.5 14.4128C1.5 14.4293 1.5 14.4458 1.5 14.4624C1.5 14.4789 1.5 14.4955 1.5 14.512C1.5 14.5286 1.5 14.5452 1.5 14.5618C1.5 14.5784 1.5 14.595 1.5 14.6116C1.5 14.6283 1.5 14.6449 1.5 14.6616C1.5 14.6782 1.5 14.6949 1.5 14.7116C1.5 14.7282 1.5 14.7449 1.5 14.7616C1.5 14.7784 1.5 14.7951 1.5 14.8118C1.5 14.8286 1.5 14.8453 1.5 14.8621C1.5 14.8788 1.5 14.8956 1.5 14.9124C1.5 14.9292 1.5 14.946 1.5 14.9628C1.5 14.9796 1.5 14.9965 1.5 15.0133C1.5 15.0302 1.5 15.047 1.5 15.0639C1.5 15.0808 1.5 15.0977 1.5 15.1146C1.5 15.1315 1.5 15.1484 1.5 15.1653C1.5 15.1823 1.5 15.1992 1.5 15.2162C1.5 15.2331 1.5 15.2501 1.5 15.2671C1.5 15.2841 1.5 15.3011 1.5 15.3181C1.5 15.3351 1.5 15.3521 1.5 15.3691C1.5 15.3862 1.5 15.4032 1.5 15.4203C1.5 15.4374 1.5 15.4545 1.5 15.4716C1.5 15.4886 1.5 15.5058 1.5 15.5229C1.5 15.54 1.5 15.5571 1.5 15.5743C1.5 15.5914 1.5 15.6086 1.5 15.6258C1.5 15.643 1.5 15.6602 1.5 15.6774C1.5 15.6946 1.5 15.7118 1.5 15.729C1.5 15.7463 1.5 15.7635 1.5 15.7808C1.5 15.798 1.5 15.8153 1.5 15.8326C1.5 15.8499 1.5 15.8672 1.5 15.8845C1.5 15.9018 1.5 15.9191 1.5 15.9365C1.5 15.9538 1.5 15.9712 1.5 15.9886C1.5 16.0059 1.5 16.0233 1.5 16.0407C1.5 16.0581 1.5 16.0755 1.5 16.0929C1.5 16.1104 1.5 16.1278 1.5 16.1453C1.5 16.1627 1.5 16.1802 1.5 16.1977C1.5 16.2152 1.5 16.2326 1.5 16.2502C1.5 16.2677 1.5 16.2852 1.5 16.3027C1.5 16.3203 1.5 16.3378 1.5 16.3554C1.5 16.3729 1.5 16.3905 1.5 16.4081C1.5 16.4257 1.5 16.4433 1.5 16.4609C1.5 16.4785 1.5 16.4962 1.5 16.5138C1.5 16.5315 1.5 16.5491 1.5 16.5668C1.5 16.5845 1.5 16.6022 1.5 16.6199C1.5 16.6376 1.5 16.6553 1.5 16.673C1.5 16.6907 1.5 16.7085 1.5 16.7262C1.5 16.744 1.5 16.7618 1.5 16.7796C1.5 16.7973 1.5 16.8151 1.5 16.8329C1.5 16.8508 1.5 16.8686 1.5 16.8864C1.5 16.9043 1.5 16.9221 1.5 16.94C1.5 16.9578 1.5 16.9757 1.5 16.9936C1.5 17.0115 1.5 17.0294 1.5 17.0473C1.5 17.0653 1.5 17.0832 1.5 17.1012C1.5 17.1191 1.5 17.1371 1.5 17.155C1.5 17.173 1.5 17.191 1.5 17.209C1.5 17.227 1.5 17.245 1.5 17.2631C1.5 17.2811 1.5 17.2991 1.5 17.3172C1.5 17.3353 1.5 17.3533 1.5 17.3714C1.5 17.3895 1.5 17.4076 1.5 17.4257C1.5 17.4438 1.5 17.462 1.5 17.4801C1.5 17.4983 1.5 17.5164 1.5 17.5346C1.5 17.5528 1.5 17.5709 1.5 17.5891C1.5 17.6073 1.5 17.6255 1.5 17.6438C1.5 17.662 1.5 17.6802 1.5 17.6985C1.5 17.7167 1.5 17.735 1.5 17.7533C1.5 17.7716 1.5 17.7899 1.5 17.8082C1.5 17.8265 1.5 17.8448 1.5 17.8631C1.5 17.8815 1.5 17.8998 1.5 17.9182C1.5 17.9365 1.5 17.9549 1.5 17.9733C1.5 17.9917 1.5 18.0101 1.5 18.0285C1.5 18.0469 1.5 18.0654 1.5 18.0838C1.5 18.1022 1.5 18.1207 1.5 18.1392C1.5 18.1576 1.5 18.1761 1.5 18.1946C1.5 18.2131 1.5 18.2316 1.5 18.2502C1.5 18.2687 1.5 18.2872 1.5 18.3058C1.5 18.3243 1.5 18.3429 1.5 18.3615C1.5 18.3801 1.5 18.3987 1.5 18.4173C1.5 18.4359 1.5 18.4545 1.5 18.4732C1.5 18.4918 1.5 18.5104 1.5 18.5291C1.5 18.5478 1.5 18.5665 1.5 18.5851C1.5 18.6038 1.5 18.6225 1.5 18.6413C1.5 18.66 1.5 18.6787 1.5 18.6975C1.5 18.7162 1.5 18.735 1.5 18.7537C1.5 18.7725 1.5 18.7913 1.5 18.8101C1.5 18.8289 1.5 18.8477 1.5 18.8666C1.5 18.8854 1.5 18.9042 1.5 18.9231C1.5 18.942 1.5 18.9608 1.5 18.9797C1.5 18.9986 1.5 19.0175 1.5 19.0364C1.5 19.0553 1.5 19.0742 1.5 19.0932C1.5 19.1121 1.5 19.1311 1.5 19.15C1.5 19.169 1.5 19.188 1.5 19.207C1.5 19.226 1.5 19.245 1.5 19.264C1.5 19.283 1.5 19.3021 1.5 19.3211C1.5 19.3402 1.5 19.3592 1.5 19.3783C1.5 19.3974 1.5 19.4165 1.5 19.4356C1.5 19.4547 1.5 19.4738 1.5 19.4929C1.5 19.5121 1.5 19.5312 1.5 19.5504C1.5 19.5695 1.5 19.5887 1.5 19.6079C1.5 19.6271 1.5 19.6463 1.5 19.6655C1.5 19.6847 1.5 19.7039 1.5 19.7232C1.5 19.7424 1.5 19.7617 1.5 19.781C1.5 19.8002 1.5 19.8195 1.5 19.8388C1.5 19.8581 1.5 19.8774 1.5 19.8967C1.5 19.9161 1.5 19.9354 1.5 19.9547C1.5 19.9741 1.5 19.9935 1.5 20.0128C1.5 20.0322 1.5 20.0516 1.5 20.071C1.5 20.0904 1.5 20.1099 1.5 20.1293C1.5 20.1487 1.5 20.1682 1.5 20.1876C1.5 20.2071 1.5 20.2266 1.5 20.2461C1.5 20.2656 1.5 20.2851 1.5 20.3046C1.5 20.3241 1.5 20.3436 1.5 20.3632C1.5 20.3827 1.5 20.4023 1.5 20.4218C1.5 20.4414 1.5 20.461 1.5 20.4806C1.5 20.5002 1.5 20.5198 1.5 20.5394C1.5 20.5591 1.5 20.5787 1.5 20.5984C1.5 20.618 1.5 20.6377 1.5 20.6574C1.5 20.677 1.5 20.6967 1.5 20.7164C1.5 20.7362 1.5 20.7559 1.5 20.7756C1.5 20.7954 1.5 20.8151 1.5 20.8349C1.5 20.8546 1.5 20.8744 1.5 20.8942C1.5 20.914 1.5 20.9338 1.5 20.9536C1.5 20.9734 1.5 20.9933 1.5 21.0131C1.5 21.033 1.5 21.0528 1.5 21.0727C1.5 21.0926 1.5 21.1125 1.5 21.1324C1.5 21.1523 1.5 21.1722 1.5 21.1921C1.5 21.212 1.5 21.232 1.5 21.2519C1.5 21.2719 1.5 21.2919 1.5 21.3118C1.5 21.3318 1.5 21.3518 1.5 21.3718C1.5 21.3918 1.5 21.4119 1.5 21.4319C1.5 21.452 1.5 21.472 1.5 21.4921C1.5 21.5121 1.5 21.5322 1.5 21.5523C1.5 21.5724 1.5 21.5925 1.5 21.6126C1.5 21.6328 1.5 21.6529 1.5 21.673C1.5 21.6932 1.5 21.7133 1.5 21.7335C1.5 21.7537 1.5 21.7739 1.5 21.7941C1.5 21.8143 1.5 21.8345 1.5 21.8547C1.5 21.875 1.5 21.8952 1.5 21.9155C1.5 21.9357 1.5 21.956 1.5 21.9763C1.5 21.9966 1.5 22.0169 1.5 22.0372C1.5 22.0575 1.5 22.0778 1.5 22.0982C1.5 22.1185 1.5 22.1389 1.5 22.1592C1.5 22.1796 1.5 22.2 1.5 22.2204C1.5 22.2408 1.5 22.2612 1.5 22.2816C1.5 22.302 1.5 22.3225 1.5 22.3429C1.5 22.3634 1.5 22.3838 1.5 22.4043C1.5 22.4248 1.5 22.4453 1.5 22.4658C1.5 22.4863 1.5 22.5068 1.5 22.5273C1.5 22.5479 1.5 22.5684 1.5 22.589C1.5 22.6095 1.5 22.6301 1.5 22.6507C1.5 22.6713 1.5 22.6919 1.5 22.7125C1.5 22.7331 1.5 22.7538 1.5 22.7744C1.5 22.795 1.5 22.8157 1.5 22.8364C1.5 22.857 1.5 22.8777 1.5 22.8984C1.5 22.9191 1.5 22.9398 1.5 22.9606C1.5 22.9813 1.5 23.002 1.5 23.0228C1.5 23.0435 1.5 23.0643 1.5 23.0851C1.5 23.1058 1.5 23.1266 1.5 23.1474C1.5 23.1683 1.5 23.1891 1.5 23.2099C1.5 23.2307 1.5 23.2516 1.5 23.2725C1.5 23.2933 1.5 23.3142 1.5 23.3351C1.5 23.356 1.5 23.3769 1.5 23.3978C1.5 23.4187 1.5 23.4396 1.5 23.4606C1.5 23.4815 1.5 23.5025 1.5 23.5235C1.5 23.5444 1.5 23.5654 1.5 23.5864C1.5 23.6074 1.5 23.6284 1.5 23.6495C1.5 23.6705 1.5 23.6915 1.5 23.7126C1.5 23.7336 1.5 23.7547 1.5 23.7758C1.5 23.7969 1.5 23.818 1.5 23.8391C1.5 23.8602 1.5 23.8813 1.5 23.9024C1.5 23.9236 1.5 23.9447 1.5 23.9659C1.5 23.987 1.5 24.0082 1.5 24.0294C1.5 24.0506 1.5 24.0718 1.5 24.093C1.5 24.1142 1.5 24.1355 1.5 24.1567C1.5 24.178 1.5 24.1992 1.5 24.2205C1.5 24.2418 1.5 24.2631 1.5 24.2844C1.5 24.3057 1.5 24.327 1.5 24.3483C1.5 24.3696 1.5 24.391 1.5 24.4123C1.5 24.4337 1.5 24.4551 1.5 24.4764C1.5 24.4978 1.5 24.5192 1.5 24.5406C1.5 24.562 1.5 24.5835 1.5 24.6049C1.5 24.6263 1.5 24.6478 1.5 24.6693C1.5 24.6907 1.5 24.7122 1.5 24.7337C1.5 24.7552 1.5 24.7767 1.5 24.7982C1.5 24.8197 1.5 24.8413 1.5 24.8628C1.5 24.8844 1.5 24.9059 1.5 24.9275C1.5 24.9491 1.5 24.9707 1.5 24.9923C1.5 25.0139 1.5 25.0355 1.5 25.0571C1.5 25.0787 1.5 25.1004 1.5 25.122C1.5 25.1437 1.5 25.1654 1.5 25.1871C1.5 25.2087 1.5 25.2304 1.5 25.2521C1.5 25.2739 1.5 25.2956 1.5 25.3173C1.5 25.3391 1.5 25.3608 1.5 25.3826C1.5 25.4043 1.5 25.4261 1.5 25.4479C1.5 25.4697 1.5 25.4915 1.5 25.5133C1.5 25.5352 1.5 25.557 1.5 25.5789C1.5 25.6007 1.5 25.6226 1.5 25.6444C1.5 25.6663 1.5 25.6882 1.5 25.7101C1.5 25.732 1.5 25.7539 1.5 25.7759C1.5 25.7978 1.5 25.8197 1.5 25.8417C1.5 25.8637 1.5 25.8856 1.5 25.9076C1.5 25.9296 1.5 25.9516 1.5 25.9736C1.5 25.9956 1.5 26.0176 1.5 26.0397C1.5 26.0617 1.5 26.0838 1.5 26.1059C1.5 26.1279 1.5 26.15 1.5 26.1721C1.5 26.1942 1.5 26.2163 1.5 26.2384C1.5 26.2605 1.5 26.2827 1.5 26.3048C1.5 26.327 1.5 26.3491 1.5 26.3713C1.5 26.3935 1.5 26.4157 1.5 26.4379C1.5 26.4601 1.5 26.4823 1.5 26.5046C1.5 26.5268 1.5 26.549 1.5 26.5713C1.5 26.5936 1.5 26.6158 1.5 26.6381C1.5 26.6604 1.5 26.6827 1.5 26.705C1.5 26.7273 1.5 26.7497 1.5 26.772C1.5 26.7943 1.5 26.8167 1.5 26.8391C1.5 26.8614 1.5 26.8838 1.5 26.9062C1.5 26.9286 1.5 26.951 1.5 26.9734C1.5 26.9959 1.5 27.0183 1.5 27.0408C1.5 27.0632 1.5 27.0857 1.5 27.1082C1.5 27.1306 1.5 27.1531 1.5 27.1756C1.5 27.1981 1.5 27.2207 1.5 27.2432C1.5 27.2657 1.5 27.2883 1.5 27.3108C1.5 27.3334 1.5 27.356 1.5 27.3786C1.5 27.4011 1.5 27.4237 1.5 27.4464C1.5 27.469 1.5 27.4916 1.5 27.5142C1.5 27.5369 1.5 27.5595 1.5 27.5822C1.5 27.6049 1.5 27.6276 1.5 27.6503C1.5 27.673 1.5 27.6957 1.5 27.7184C1.5 27.7411 1.5 27.7639 1.5 27.7866C1.5 27.8094 1.5 27.8321 1.5 27.8549C1.5 27.8777 1.5 27.9005 1.5 27.9233C1.5 27.9461 1.5 27.9689 1.5 27.9918C1.5 28.0146 1.5 28.0374 1.5 28.0603C1.5 28.0832 1.5 28.106 1.5 28.1289C1.5 28.1518 1.5 28.1747 1.5 28.1976C1.5 28.2205 1.5 28.2435 1.5 28.2664C1.5 28.2894 1.5 28.3123 1.5 28.3353C1.5 28.3583 1.5 28.3813 1.5 28.4042C1.5 28.4272 1.5 28.4503 1.5 28.4733C1.5 28.4963 1.5 28.5194 1.5 28.5424C1.5 28.5655 1.5 28.5885 1.5 28.6116C1.5 28.6347 1.5 28.6578 1.5 28.6809C1.5 28.704 1.5 28.7271 1.5 28.7503C1.5 28.7734 1.5 28.7965 1.5 28.8197C1.5 28.8429 1.5 28.866 1.5 28.8892C1.5 28.9124 1.5 28.9356 1.5 28.9588C1.5 28.9821 1.5 29.0053 1.5 29.0285C1.5 29.0518 1.5 29.075 1.5 29.0983C1.5 29.1216 1.5 29.1449 1.5 29.1682C1.5 29.1915 1.5 29.2148 1.5 29.2381C1.5 29.2614 1.5 29.2848 1.5 29.3081C1.5 29.3315 1.5 29.3548 1.5 29.3782C1.5 29.4016 1.5 29.425 1.5 29.4484C1.5 29.4718 1.5 29.4952 1.5 29.5187C1.5 29.5421 1.5 29.5656 1.5 29.589C1.5 29.6125 1.5 29.636 1.5 29.6595C1.5 29.683 1.5 29.7065 1.5 29.73C1.5 29.7535 1.5 29.777 1.5 29.8006C1.5 29.8241 1.5 29.8477 1.5 29.8712C1.5 29.8948 1.5 29.9184 1.5 29.942C1.5 29.9656 1.5 29.9892 1.5 30.0128C1.5 30.0365 1.5 30.0601 1.5 30.0838C1.5 30.1074 1.5 30.1311 1.5 30.1548C1.5 30.1785 1.5 30.2022 1.5 30.2259C1.5 30.2496 1.5 30.2733 1.5 30.297C1.5 30.3208 1.5 30.3445 1.5 30.3683C1.5 30.392 1.5 30.4158 1.5 30.4396C1.5 30.4634 1.5 30.4872 1.5 30.511C1.5 30.5348 1.5 30.5587 1.5 30.5825C1.5 30.6064 1.5 30.6302 1.5 30.6541C1.5 30.678 1.5 30.7019 1.5 30.7258C1.5 30.7497 1.5 30.7736 1.5 30.7975C1.5 30.8214 1.5 30.8454 1.5 30.8693C1.5 30.8933 1.5 30.9173 1.5 30.9412C1.5 30.9652 1.5 30.9892 1.5 31.0132C1.5 31.0372 1.5 31.0613 1.5 31.0853C1.5 31.1093 1.5 31.1334 1.5 31.1575C1.5 31.1815 1.5 31.2056 1.5 31.2297C1.5 31.2538 1.5 31.2779 1.5 31.302C1.5 31.3261 1.5 31.3503 1.5 31.3744C1.5 31.3986 1.5 31.4227 1.5 31.4469C1.5 31.4711 1.5 31.4952 1.5 31.5194C1.5 31.5436 1.5 31.5679 1.5 31.5921C1.5 31.6163 1.5 31.6406 1.5 31.6648C1.5 31.6891 1.5 31.7133 1.5 31.7376C1.5 31.7619 1.5 31.7862 1.5 31.8105C1.5 31.8348 1.5 31.8591 1.5 31.8835C1.5 31.9078 1.5 31.9322 1.5 31.9565C1.5 31.9809 1.5 32.0053 1.5 32.0297C1.5 32.0541 1.5 32.0785 1.5 32.1029C1.5 32.1273 1.5 32.1517 1.5 32.1762C1.5 32.2006 1.5 32.2251 1.5 32.2496C1.5 32.2741 1.5 32.2985 1.5 32.323C1.5 32.3475 1.5 32.3721 1.5 32.3966C1.5 32.4211 1.5 32.4457 1.5 32.4702C1.5 32.4948 1.5 32.5193 1.5 32.5439C1.5 32.5685 1.5 32.5931 1.5 32.6177C1.5 32.6423 1.5 32.6669 1.5 32.6916C1.5 32.7162 1.5 32.7409 1.5 32.7655C1.5 32.7902 1.5 32.8149 1.5 32.8396C1.5 32.8643 1.5 32.889 1.5 32.9137C1.5 32.9384 1.5 32.9632 1.5 32.9879C1.5 33.0126 1.5 33.0374 1.5 33.0622C1.5 33.087 1.5 33.1117 1.5 33.1365C1.5 33.1613 1.5 33.1862 1.5 33.211C1.5 33.2358 1.5 33.2607 1.5 33.2855C1.5 33.3104 1.5 33.3352 1.5 33.3601C1.5 33.385 1.5 33.4099 1.5 33.4348C1.5 33.4597 1.5 33.4847 1.5 33.5096C1.5 33.5345 1.5 33.5595 1.5 33.5845C1.5 33.6094 1.5 33.6344 1.5 33.6594C1.5 33.6844 1.5 33.7094 1.5 33.7344C1.5 33.7594 1.5 33.7845 1.5 33.8095C1.5 33.8346 1.5 33.8596 1.5 33.8847C1.5 33.9098 1.5 33.9349 1.5 33.96C1.5 33.9851 1.5 34.0102 1.5 34.0353C1.5 34.0604 1.5 34.0856 1.5 34.1107C1.5 34.1359 1.5 34.1611 1.5 34.1862C1.5 34.2114 1.5 34.2366 1.5 34.2618C1.5 34.287 1.5 34.3123 1.5 34.3375C1.5 34.3627 1.5 34.388 1.5 34.4133C1.5 34.4385 1.5 34.4638 1.5 34.4891C1.5 34.5144 1.5 34.5397 1.5 34.565C1.5 34.5903 1.5 34.6157 1.5 34.641C1.5 34.6664 1.5 34.6917 1.5 34.7171C1.5 34.7425 1.5 34.7679 1.5 34.7933C1.5 34.8187 1.5 34.8441 1.5 34.8695C1.5 34.8949 1.5 34.9204 1.5 34.9458C1.5 34.9713 1.5 34.9968 1.5 35.0223C1.5 35.0477 1.5 35.0732 1.5 35.0987C1.5 35.1243 1.5 35.1498 1.5 35.1753C1.5 35.2009 1.5 35.2264 1.5 35.252C1.5 35.2775 1.5 35.3031 1.5 35.3287C1.5 35.3543 1.5 35.3799 1.5 35.4055C1.5 35.4312 1.5 35.4568 1.5 35.4824C1.5 35.5081 1.5 35.5337 1.5 35.5594C1.5 35.5851 1.5 35.6108 1.5 35.6365C1.5 35.6622 1.5 35.6879 1.5 35.7136C1.5 35.7394 1.5 35.7651 1.5 35.7909C1.5 35.8166 1.5 35.8424 1.5 35.8682C1.5 35.894 1.5 35.9197 1.5 35.9456C1.5 35.9714 1.5 35.9972 1.5 36.023C1.5 36.0489 1.5 36.0747 1.5 36.1006C1.5 36.1265 1.5 36.1523 1.5 36.1782C1.5 36.2041 1.5 36.23 1.5 36.2559C1.5 36.2819 1.5 36.3078 1.5 36.3337C1.5 36.3597 1.5 36.3857 1.5 36.4116C1.5 36.4376 1.5 36.4636 1.5 36.4896C1.5 36.5156 1.5 36.5416 1.5 36.5676C1.5 36.5937 1.5 36.6197 1.5 36.6458C1.5 36.6718 1.5 36.6979 1.5 36.724C1.5 36.7501 1.5 36.7762 1.5 36.8023C1.5 36.8284 1.5 36.8545 1.5 36.8806C1.5 36.9068 1.5 36.9329 1.5 36.9591C1.5 36.9853 1.5 37.0114 1.5 37.0376C1.5 37.0638 1.5 37.09 1.5 37.1162C1.5 37.1425 1.5 37.1687 1.5 37.1949C1.5 37.2212 1.5 37.2475 1.5 37.2737C1.5 37.3 1.5 37.3263 1.5 37.3526C1.5 37.3789 1.5 37.4052 1.5 37.4315C1.5 37.4579 1.5 37.4842 1.5 37.5106C1.5 37.5369 1.5 37.5633 1.5 37.5897C1.5 37.6161 1.5 37.6425 1.5 37.6689C1.5 37.6953 1.5 37.7217 1.5 37.7481C1.5 37.7746 1.5 37.801 1.5 37.8275C1.5 37.854 1.5 37.8804 1.5 37.9069C1.5 37.9334 1.5 37.9599 1.5 37.9864C1.5 38.013 1.5 38.0395 1.5 38.066C1.5 38.0926 1.5 38.1191 1.5 38.1457C1.5 38.1723 1.5 38.1989 1.5 38.2255C1.5 38.2521 1.5 38.2787 1.5 38.3053C1.5 38.332 1.5 38.3586 1.5 38.3852C1.5 38.4119 1.5 38.4386 1.5 38.4653C1.5 38.4919 1.5 38.5186 1.5 38.5453C1.5 38.5721 1.5 38.5988 1.5 38.6255C1.5 38.6523 1.5 38.679 1.5 38.7058C1.5 38.7325 1.5 38.7593 1.5 38.7861C1.5 38.8129 1.5 38.8397 1.5 38.8665C1.5 38.8933 1.5 38.9202 1.5 38.947C1.5 38.9739 1.5 39.0007 1.5 39.0276C1.5 39.0545 1.5 39.0813 1.5 39.1083C1.5 39.1352 1.5 39.1621 1.5 39.189C1.5 39.2159 1.5 39.2429 1.5 39.2698C1.5 39.2968 1.5 39.3237 1.5 39.3507C1.5 39.3777 1.5 39.4047 1.5 39.4317C1.5 39.4587 1.5 39.4857 1.5 39.5128C1.5 39.5398 1.5 39.5669 1.5 39.5939C1.5 39.621 1.5 39.6481 1.5 39.6752C1.5 39.7022 1.5 39.7294 1.5 39.7565C1.5 39.7836 1.5 39.8107 1.5 39.8379C1.5 39.865 1.5 39.8922 1.5 39.9193C1.5 39.9465 1.5 39.9737 1.5 40.0009C1.5 40.0281 1.5 40.0553 1.5 40.0825C1.5 40.1098 1.5 40.137 1.5 40.1643C1.5 40.1915 1.5 40.2188 1.5 40.2461C1.5 40.2733 1.5 40.3006 1.5 40.328C1.5 40.3553 1.5 40.3826 1.5 40.4099C1.5 40.4373 1.5 40.4646 1.5 40.492C1.5 40.5193 1.5 40.5467 1.5 40.5741C1.5 40.6015 1.5 40.6289 1.5 40.6563C1.5 40.6837 1.5 40.7112 1.5 40.7386C1.5 40.766 1.5 40.7935 1.5 40.821C1.5 40.8484 1.5 40.8759 1.5 40.9034C1.5 40.9309 1.5 40.9584 1.5 40.986C1.5 41.0135 1.5 41.041 1.5 41.0686C1.5 41.0961 1.5 41.1237 1.5 41.1513C1.5 41.1789 1.5 41.2065 1.5 41.2341C1.5 41.2617 1.5 41.2893 1.5 41.3169C1.5 41.3446 1.5 41.3722 1.5 41.3999C1.5 41.4275 1.5 41.4552 1.5 41.4829C1.5 41.5106 1.5 41.5383 1.5 41.566C1.5 41.5937 1.5 41.6215 1.5 41.6492C1.5 41.6769 1.5 41.7047 1.5 41.7325C1.5 41.7602 1.5 41.788 1.5 41.8158C1.5 41.8436 1.5 41.8714 1.5 41.8993C1.5 41.9271 1.5 41.9549 1.5 41.9828C1.5 42.0106 1.5 42.0385 1.5 42.0664C1.5 42.0943 1.5 42.1222 1.5 42.1501C1.5 42.178 1.5 42.2059 1.5 42.2338C1.5 42.2618 1.5 42.2897 1.5 42.3177C1.5 42.3456 1.5 42.3736 1.5 42.4016C1.5 42.4296 1.5 42.4576 1.5 42.4856C1.5 42.5136 1.5 42.5416 1.5 42.5697C1.5 42.5977 1.5 42.6258 1.5 42.6538C1.5 42.6819 1.5 42.71 1.5 42.7381C1.5 42.7662 1.5 42.7943 1.5 42.8224C1.5 42.8506 1.5 42.8787 1.5 42.9068C1.5 42.935 1.5 42.9632 1.5 42.9913C1.5 43.0195 1.5 43.0477 1.5 43.0759C1.5 43.1041 1.5 43.1323 1.5 43.1606C1.5 43.1888 1.5 43.2171 1.5 43.2453C1.5 43.2736 1.5 43.3018 1.5 43.3301C1.5 43.3584 1.5 43.3867 1.5 43.415C1.5 43.4434 1.5 43.4717 1.5 43.5C1.5 43.5284 1.5 43.5567 1.5 43.5851C1.5 43.6135 1.5 43.6418 1.5 43.6702C1.5 43.6986 1.5 43.727 1.5 43.7555C1.5 43.7839 1.5 43.8123 1.5 43.8408C1.5 43.8692 1.5 43.8977 1.5 43.9262C1.5 43.9546 1.5 43.9831 1.5 44.0116C1.5 44.0401 1.5 44.0687 1.5 44.0972C1.5 44.1257 1.5 44.1543 1.5 44.1828C1.5 44.2114 1.5 44.24 1.5 44.2685C1.5 44.2971 1.5 44.3257 1.5 44.3543C1.5 44.383 1.5 44.4116 1.5 44.4402C1.5 44.4689 1.5 44.4975 1.5 44.5262C1.5 44.5549 1.5 44.5835 1.5 44.6122C1.5 44.6409 1.5 44.6696 1.5 44.6984C1.5 44.7271 1.5 44.7558 1.5 44.7846C1.5 44.8133 1.5 44.8421 1.5 44.8708C1.5 44.8996 1.5 44.9284 1.5 44.9572C1.5 44.986 1.5 45.0148 1.5 45.0437C1.5 45.0725 1.5 45.1013 1.5 45.1302C1.5 45.1591 1.5 45.1879 1.5 45.2168C1.5 45.2457 1.5 45.2746 1.5 45.3035C1.5 45.3324 1.5 45.3613 1.5 45.3903C1.5 45.4192 1.5 45.4482 1.5 45.4771C1.5 45.5061 1.5 45.5351 1.5 45.5641C1.5 45.5931 1.5 45.6221 1.5 45.6511C1.5 45.6801 1.5 45.7092 1.5 45.7382C1.5 45.7673 1.5 45.7963 1.5 45.8254C1.5 45.8545 1.5 45.8836 1.5 45.9127C1.5 45.9418 1.5 45.9709 1.5 46H0.5ZM12 0.5H435V1.5H12V0.5ZM446.5 12V19.9894H445.5V12H446.5ZM446.5 19.9894V46H445.5V19.9894H446.5ZM435 0.5C441.351 0.5 446.5 5.64873 446.5 12H445.5C445.5 6.20101 440.799 1.5 435 1.5V0.5ZM0.5 11.9934C0.5 5.6417 5.64912 0.5 12 0.5V1.5C6.20062 1.5 1.5 6.19477 1.5 11.9934H0.5Z" fill="#9D9C98"/>
</svg>
